<?xml version="1.0" encoding="UTF-8"?>
<!-- Generator: visioncortex VTracer 0.6.4 -->
<svg version="1.1" xmlns="http://www.w3.org/2000/svg" width="584" height="611">
<path d="M0 0 C6.51 -0.04 13.01 -0.06 19.52 -0.08 C24.28 -0.1 29.04 -0.13 33.81 -0.17 C37.25 -0.2 40.68 -0.2 44.12 -0.21 C45.28 -0.22 46.43 -0.24 47.62 -0.25 C63.7 -0.24 79.44 4.63 91.14 16.1 C91.14 16.76 91.14 17.42 91.14 18.1 C91.71 18.34 92.28 18.59 92.87 18.84 C95.51 20.3 97.29 22 99.42 24.14 C100.27 24.98 101.11 25.83 101.99 26.7 C102.91 27.63 103.83 28.56 104.78 29.52 C105.77 30.5 106.76 31.49 107.74 32.48 C110.43 35.16 113.1 37.84 115.77 40.53 C118.57 43.34 121.38 46.15 124.18 48.96 C129.5 54.28 134.81 59.61 140.13 64.94 C146.15 70.99 152.18 77.03 158.21 83.07 C168.53 93.41 178.84 103.75 189.15 114.09 C197 121.97 197 121.97 204.9 129.81 C208.78 133.63 212.64 137.47 216.51 141.31 C218.17 142.95 219.83 144.6 221.5 146.24 C223.93 148.62 226.34 151.02 228.75 153.42 C229.49 154.14 230.22 154.86 230.98 155.6 C248.31 172.93 253.21 192.14 253.28 216.07 C253.28 217.49 253.28 218.92 253.28 220.34 C253.28 221.88 253.28 223.41 253.29 224.94 C253.29 229.14 253.3 233.34 253.3 237.53 C253.3 242.06 253.31 246.6 253.31 251.13 C253.33 261.03 253.33 270.93 253.34 280.83 C253.34 287.02 253.34 293.2 253.35 299.39 C253.36 316.53 253.37 333.67 253.37 350.8 C253.37 351.9 253.37 353 253.37 354.12 C253.37 355.22 253.37 356.32 253.37 357.45 C253.38 359.68 253.38 361.9 253.38 364.13 C253.38 365.23 253.38 366.34 253.38 367.47 C253.38 385.36 253.4 403.25 253.42 421.14 C253.45 439.53 253.46 457.91 253.46 476.29 C253.46 486.61 253.47 496.93 253.48 507.24 C253.5 516.02 253.5 524.8 253.5 533.59 C253.49 538.06 253.49 542.54 253.51 547.02 C253.52 551.12 253.52 555.23 253.51 559.33 C253.5 560.81 253.51 562.29 253.52 563.77 C253.58 575 253.33 586.42 245.82 595.41 C241.68 599.56 237.33 602.95 231.29 603.22 C230.12 603.23 228.95 603.23 227.74 603.23 C226.76 603.23 226.76 603.23 225.76 603.23 C223.55 603.24 221.34 603.24 219.13 603.24 C217.53 603.24 215.94 603.24 214.34 603.25 C209.95 603.25 205.55 603.26 201.16 603.26 C196.43 603.26 191.69 603.27 186.96 603.27 C176.6 603.29 166.24 603.29 155.88 603.3 C149.41 603.3 142.94 603.3 136.47 603.31 C118.56 603.32 100.65 603.33 82.74 603.33 C81.6 603.33 80.45 603.33 79.27 603.34 C78.12 603.34 76.97 603.34 75.79 603.34 C73.46 603.34 71.13 603.34 68.8 603.34 C67.64 603.34 66.49 603.34 65.3 603.34 C46.58 603.34 27.87 603.36 9.16 603.38 C-10.05 603.41 -29.26 603.42 -48.47 603.42 C-59.26 603.42 -70.04 603.43 -80.83 603.44 C-90.02 603.46 -99.21 603.47 -108.39 603.46 C-113.08 603.45 -117.77 603.45 -122.45 603.47 C-126.75 603.48 -131.04 603.48 -135.34 603.47 C-136.89 603.47 -138.44 603.47 -139.98 603.48 C-157.26 603.57 -170.69 600.23 -183.39 588.19 C-184.04 587.58 -184.68 586.98 -185.34 586.35 C-194.26 577.9 -202.92 569.17 -211.6 560.47 C-214.09 557.97 -216.58 555.47 -219.08 552.97 C-223.79 548.27 -228.49 543.55 -233.19 538.84 C-238.53 533.49 -243.88 528.14 -249.23 522.78 C-258.37 513.64 -267.5 504.49 -276.63 495.34 C-278.09 493.88 -279.55 492.42 -281 490.96 C-282.14 489.82 -283.28 488.68 -284.41 487.53 C-286.45 485.47 -288.47 483.61 -290.74 481.78 C-303.51 471.26 -314.45 455.63 -316.86 439.1 C-317.16 433.44 -317.14 427.8 -317.13 422.14 C-317.14 420.4 -317.14 418.67 -317.15 416.94 C-317.16 412.19 -317.16 407.44 -317.15 402.69 C-317.15 397.56 -317.17 392.44 -317.17 387.31 C-317.19 377.27 -317.2 367.23 -317.2 357.19 C-317.2 349.03 -317.2 340.88 -317.21 332.72 C-317.23 309.58 -317.24 286.44 -317.23 263.3 C-317.23 262.06 -317.23 260.81 -317.23 259.52 C-317.23 258.28 -317.23 257.03 -317.23 255.74 C-317.23 235.5 -317.25 215.26 -317.28 195.02 C-317.31 174.24 -317.32 153.45 -317.32 132.67 C-317.32 121 -317.33 109.33 -317.35 97.66 C-317.37 87.73 -317.37 77.8 -317.36 67.86 C-317.35 62.8 -317.35 57.73 -317.37 52.67 C-317.38 48.02 -317.38 43.38 -317.36 38.74 C-317.36 37.07 -317.36 35.39 -317.37 33.72 C-317.5 14.19 -317.5 14.19 -311.11 7.17 C-304.67 1.16 -298.6 0.8 -290.11 0.82 C-288.47 0.81 -288.47 0.81 -286.79 0.8 C-283.1 0.78 -279.41 0.78 -275.72 0.78 C-273.08 0.77 -270.43 0.76 -267.79 0.75 C-261.33 0.72 -254.87 0.71 -248.41 0.7 C-240.81 0.68 -233.21 0.66 -225.61 0.63 C-211.96 0.59 -198.31 0.55 -184.66 0.52 C-171.59 0.49 -158.52 0.45 -145.45 0.41 C-144.66 0.41 -143.86 0.41 -143.04 0.41 C-139.05 0.39 -135.05 0.38 -131.05 0.37 C-110.78 0.31 -90.51 0.25 -70.24 0.21 C-69.49 0.2 -68.74 0.2 -67.97 0.2 C-61.35 0.19 -54.72 0.17 -48.1 0.16 C-32.07 0.13 -16.03 0.09 0 0 Z M-275.86 42.1 C-275.96 44.15 -275.99 46.22 -275.99 48.28 C-275.99 48.93 -276 49.59 -276 50.26 C-276 52.49 -276 54.71 -276 56.94 C-276 58.54 -276 60.14 -276 61.74 C-276.01 66.16 -276.01 70.58 -276.01 75 C-276.01 79.76 -276.01 84.51 -276.02 89.27 C-276.03 98.6 -276.03 107.94 -276.03 117.27 C-276.03 124.85 -276.03 132.43 -276.04 140.02 C-276.05 161.5 -276.05 182.99 -276.05 204.47 C-276.05 205.63 -276.05 206.79 -276.05 207.99 C-276.05 209.15 -276.05 210.31 -276.05 211.5 C-276.05 230.31 -276.06 249.12 -276.07 267.93 C-276.09 287.23 -276.09 306.53 -276.09 325.83 C-276.09 336.67 -276.1 347.51 -276.11 358.35 C-276.12 367.58 -276.12 376.81 -276.11 386.04 C-276.11 390.75 -276.11 395.47 -276.12 400.18 C-276.12 404.49 -276.12 408.8 -276.11 413.12 C-276.11 414.68 -276.11 416.24 -276.12 417.8 C-276.13 419.92 -276.12 422.04 -276.11 424.16 C-276.11 425.34 -276.11 426.52 -276.11 427.73 C-275.69 433.45 -274.34 438.11 -270.74 442.6 C-270.2 443.29 -269.66 443.98 -269.11 444.69 C-267.24 446.69 -265.39 448.41 -263.32 450.18 C-257.83 454.91 -252.77 460.08 -247.68 465.22 C-246.7 466.21 -245.71 467.19 -244.73 468.18 C-242.93 469.99 -241.13 471.81 -239.32 473.62 C-237.61 475.35 -235.89 477.06 -234.16 478.77 C-231.86 481.1 -231.86 481.1 -230.18 483.41 C-229.53 484.24 -229.53 484.24 -228.86 485.1 C-228.2 485.1 -227.54 485.1 -226.86 485.1 C-226.86 485.76 -226.86 486.42 -226.86 487.1 C-224.53 489.76 -224.53 489.76 -221.86 492.1 C-221.2 492.1 -220.54 492.1 -219.86 492.1 C-219.86 492.76 -219.86 493.42 -219.86 494.1 C-219.2 494.1 -218.54 494.1 -217.86 494.1 C-217.37 495.58 -217.37 495.58 -216.86 497.1 C-215.27 498.71 -215.27 498.71 -213.3 500.29 C-208.94 503.99 -204.89 507.92 -200.86 511.97 C-199.76 513.06 -199.76 513.06 -198.65 514.18 C-197.12 515.71 -195.59 517.24 -194.06 518.77 C-191.74 521.09 -189.41 523.42 -187.09 525.74 C-185.59 527.23 -184.1 528.73 -182.61 530.22 C-181.57 531.25 -181.57 531.25 -180.52 532.3 C-176.84 536 -173.37 539.77 -170.1 543.84 C-169.49 544.46 -169.49 544.46 -168.86 545.1 C-168.2 545.1 -167.54 545.1 -166.86 545.1 C-166.86 545.76 -166.86 546.42 -166.86 547.1 C-166.2 547.1 -165.54 547.1 -164.86 547.1 C-164.64 547.66 -164.43 548.23 -164.2 548.81 C-162.44 551.83 -160.21 553.54 -157.49 555.72 C-156.05 556.89 -156.05 556.89 -154.59 558.07 C-150.12 561.39 -147.4 562.35 -141.78 562.35 C-140.53 562.35 -139.27 562.35 -137.98 562.36 C-136.59 562.35 -135.19 562.35 -133.8 562.34 C-132.32 562.35 -130.84 562.35 -129.36 562.35 C-125.29 562.36 -121.22 562.35 -117.15 562.34 C-112.76 562.34 -108.37 562.34 -103.98 562.35 C-95.39 562.35 -86.79 562.34 -78.19 562.34 C-68.19 562.33 -58.19 562.33 -48.18 562.33 C-30.34 562.33 -12.5 562.32 5.34 562.3 C22.67 562.29 40 562.28 57.33 562.28 C58.39 562.28 59.46 562.28 60.56 562.28 C62.16 562.28 62.16 562.28 63.79 562.28 C83.5 562.28 103.2 562.28 122.91 562.27 C129.89 562.27 136.87 562.26 143.85 562.26 C152.35 562.26 160.85 562.26 169.35 562.25 C173.69 562.24 178.03 562.24 182.37 562.24 C186.34 562.24 190.3 562.24 194.27 562.23 C195.71 562.23 197.15 562.23 198.59 562.23 C200.54 562.24 202.49 562.23 204.43 562.23 C205.52 562.22 206.6 562.22 207.72 562.22 C210.09 562.37 210.09 562.37 211.14 561.1 C211.24 559.19 211.27 557.27 211.27 555.36 C211.28 553.48 211.28 553.48 211.28 551.56 C211.28 550.15 211.28 548.74 211.28 547.33 C211.29 545.85 211.29 544.37 211.29 542.88 C211.3 538.79 211.31 534.69 211.31 530.59 C211.31 526.18 211.32 521.77 211.33 517.36 C211.35 506.7 211.36 496.03 211.37 485.37 C211.38 480.35 211.38 475.33 211.39 470.31 C211.4 453.63 211.42 436.96 211.43 420.28 C211.43 415.94 211.43 411.61 211.43 407.28 C211.43 406.2 211.43 405.13 211.43 404.02 C211.44 386.58 211.47 369.14 211.5 351.71 C211.53 333.81 211.55 315.92 211.55 298.02 C211.56 287.97 211.56 277.92 211.59 267.87 C211.61 259.31 211.62 250.75 211.61 242.19 C211.61 237.82 211.61 233.46 211.63 229.09 C211.64 225.09 211.64 221.09 211.63 217.09 C211.63 215.64 211.63 214.2 211.64 212.75 C211.73 201.3 210.3 193.77 202.21 185.37 C201.74 184.87 201.26 184.37 200.77 183.86 C199.24 182.26 197.69 180.68 196.14 179.1 C195.63 178.58 195.12 178.06 194.6 177.52 C190.73 173.55 186.82 169.62 182.9 165.7 C181.61 164.4 180.32 163.11 179.03 161.81 C175.57 158.34 172.1 154.86 168.63 151.39 C166.46 149.22 164.29 147.04 162.12 144.87 C155.31 138.04 148.5 131.22 141.69 124.41 C133.85 116.57 126.02 108.72 118.19 100.86 C112.12 94.77 106.04 88.68 99.95 82.59 C96.33 78.97 92.71 75.34 89.09 71.7 C85.7 68.29 82.29 64.89 78.88 61.49 C77.64 60.24 76.4 59 75.16 57.74 C64.65 46.24 64.65 46.24 50.66 40.97 C49.67 40.97 48.67 40.97 47.65 40.97 C46.5 40.97 45.35 40.97 44.17 40.96 C42.9 40.97 41.64 40.97 40.33 40.97 C38.98 40.97 37.62 40.97 36.27 40.97 C32.53 40.96 28.8 40.96 25.07 40.97 C21.05 40.97 17.03 40.96 13.01 40.96 C5.13 40.96 -2.75 40.96 -10.63 40.96 C-17.03 40.96 -23.43 40.96 -29.83 40.96 C-30.73 40.96 -31.64 40.96 -32.58 40.96 C-34.43 40.96 -36.28 40.96 -38.12 40.96 C-55.46 40.96 -72.8 40.96 -90.14 40.97 C-105.03 40.97 -119.92 40.97 -134.82 40.97 C-152.09 40.96 -169.37 40.96 -186.65 40.96 C-188.49 40.96 -190.33 40.96 -192.17 40.96 C-193.53 40.96 -193.53 40.96 -194.91 40.96 C-201.31 40.96 -207.71 40.96 -214.11 40.96 C-221.89 40.96 -229.68 40.96 -237.47 40.96 C-241.45 40.97 -245.43 40.97 -249.41 40.96 C-253.04 40.96 -256.68 40.96 -260.31 40.97 C-262.26 40.97 -264.21 40.97 -266.16 40.96 C-267.31 40.97 -268.45 40.97 -269.63 40.97 C-271.12 40.97 -271.12 40.97 -272.64 40.97 C-274.84 40.85 -274.84 40.85 -275.86 42.1 Z " fill="#28988B" transform="translate(323.8639678955078,2.9031200408935547)"/>
<path d="M0 0 C23.86 -0.59 50.2 4.3 68.18 21.12 C68.92 21.81 69.67 22.5 70.43 23.21 C79.65 32.57 88.23 47.78 88.36 61.24 C88.3 62.19 88.24 63.14 88.18 64.12 C80.71 66.74 73.13 68.83 65.47 70.82 C63.35 71.37 61.23 71.94 59.11 72.51 C57.75 72.86 56.39 73.22 55.03 73.57 C53.81 73.89 52.59 74.21 51.33 74.54 C48.42 75.07 46.85 75.3 44.18 74.12 C43.38 72.18 43.38 72.18 42.86 69.68 C40.35 60.24 34.52 53.08 26.18 48.12 C15.38 42.11 2.6 40.37 -9.39 43.3 C-18.11 45.99 -24.35 48.98 -28.79 57.3 C-30.9 63.03 -31.28 68.96 -28.69 74.59 C-27.37 76.73 -27.37 76.73 -25.92 78.59 C-24.82 80.12 -24.82 80.12 -24.82 82.12 C-13.14 88.07 -0.83 91.72 11.68 95.49 C22.49 98.76 33.28 102.07 43.96 105.77 C44.75 106.04 45.55 106.31 46.37 106.59 C62.5 112.26 80.26 121.63 88.03 137.75 C97.17 158.16 97.52 177.65 89.55 198.74 C82.69 215.73 69.26 227 52.94 234.63 C24.08 246.35 -12.91 245.37 -41.7 233.66 C-47.54 230.78 -52.66 227.06 -57.82 223.12 C-58.55 222.59 -59.28 222.06 -60.03 221.51 C-74.62 209.98 -83.54 191.27 -85.82 173.12 C-85.33 172.13 -85.33 172.13 -84.82 171.12 C-82.82 170.64 -80.79 170.26 -78.76 169.93 C-70.29 168.43 -62.15 165.94 -53.95 163.37 C-52.96 163.06 -51.96 162.76 -50.94 162.45 C-50.05 162.17 -49.16 161.89 -48.24 161.6 C-45.66 161.08 -44.25 161.09 -41.82 162.12 C-40.59 164.71 -40.59 164.71 -39.51 168.05 C-35.37 179.57 -28.4 189.17 -17.38 194.91 C-4.03 201.03 11.23 202.27 25.42 198.16 C33.64 195.05 39.52 190.8 44.27 183.42 C46.71 177.23 46.24 168.63 44.32 162.31 C36.16 147.83 10.65 144.27 -3.81 139.92 C-44.54 127.66 -44.54 127.66 -57.82 116.12 C-59.31 115.13 -59.31 115.13 -60.82 114.12 C-60.82 113.46 -60.82 112.8 -60.82 112.12 C-61.48 112.12 -62.14 112.12 -62.82 112.12 C-76.18 96.39 -80.06 79.49 -78.62 59.2 C-77.08 46.69 -71.38 34.34 -62.82 25.12 C-61.88 24.07 -61.88 24.07 -60.92 23.01 C-56.37 18.21 -51.51 14.49 -45.82 11.12 C-45.13 10.69 -44.44 10.26 -43.73 9.81 C-30.63 2.4 -14.75 0.61 0 0 Z " fill="#36B05C" transform="translate(401.82421875,175.8828125)"/>
<path d="M0 0 C0.72 0.01 1.43 0.01 2.17 0.02 C3.31 0.01 3.31 0.01 4.48 0.01 C7.04 0 9.6 0.01 12.16 0.02 C13.99 0.02 15.83 0.02 17.66 0.01 C22.64 0.01 27.62 0.02 32.61 0.03 C37.81 0.04 43.02 0.03 48.22 0.03 C56.96 0.03 65.7 0.04 74.44 0.06 C84.56 0.07 94.68 0.08 104.8 0.08 C114.52 0.08 124.24 0.08 133.96 0.09 C138.1 0.09 142.24 0.1 146.39 0.1 C151.26 0.1 156.14 0.1 161.01 0.11 C162.81 0.12 164.6 0.12 166.39 0.12 C168.83 0.12 171.27 0.12 173.71 0.13 C174.43 0.13 175.15 0.13 175.89 0.12 C180.76 0.15 180.76 0.15 181.88 1.26 C181.99 4.34 182.04 7.4 182.05 10.48 C182.05 11.4 182.05 12.33 182.06 13.28 C182.06 15.25 182.06 17.21 182.06 19.17 C182.07 22.18 182.08 25.19 182.1 28.21 C182.11 30.11 182.11 32.01 182.11 33.92 C182.12 34.82 182.12 35.73 182.13 36.66 C182.13 37.5 182.12 38.33 182.12 39.2 C182.12 39.93 182.12 40.67 182.13 41.43 C181.88 43.26 181.88 43.26 179.88 45.26 C157.11 45.26 134.34 45.26 110.88 45.26 C110.88 107.96 110.88 170.66 110.88 235.26 C108.57 236.42 107.27 236.38 104.7 236.38 C103.41 236.38 103.41 236.38 102.1 236.38 C100.7 236.37 100.7 236.37 99.28 236.36 C98.33 236.36 97.37 236.36 96.39 236.36 C93.35 236.35 90.3 236.34 87.25 236.33 C85.19 236.32 83.13 236.32 81.07 236.31 C76 236.3 70.94 236.28 65.88 236.26 C63.9 232.13 63.63 228.79 63.63 224.23 C63.63 223.53 63.63 222.83 63.62 222.11 C63.62 219.79 63.63 217.46 63.64 215.13 C63.63 213.46 63.63 211.78 63.63 210.11 C63.62 205.57 63.63 201.03 63.64 196.49 C63.65 191.72 63.65 186.96 63.65 182.19 C63.65 174.19 63.66 166.18 63.67 158.17 C63.69 148.94 63.69 139.71 63.69 130.48 C63.69 120.62 63.7 110.77 63.71 100.92 C63.71 98.09 63.71 95.27 63.71 92.44 C63.71 87.98 63.72 83.52 63.73 79.06 C63.73 77.43 63.73 75.8 63.73 74.17 C63.73 64.48 64.04 54.92 64.88 45.26 C63.91 45.27 62.94 45.27 61.95 45.28 C53.83 45.32 45.72 45.35 37.6 45.37 C33.38 45.38 29.16 45.39 24.94 45.41 C20.86 45.44 16.79 45.45 12.72 45.45 C11.17 45.46 9.61 45.46 8.05 45.47 C5.88 45.49 3.71 45.49 1.53 45.49 C0.29 45.49 -0.95 45.5 -2.22 45.5 C-5.12 45.26 -5.12 45.26 -7.12 43.26 C-7.32 40.2 -7.4 37.23 -7.39 34.17 C-7.39 33.27 -7.39 32.36 -7.39 31.43 C-7.39 29.52 -7.39 27.61 -7.38 25.7 C-7.37 22.77 -7.38 19.85 -7.4 16.92 C-7.39 15.06 -7.39 13.21 -7.39 11.36 C-7.39 10.48 -7.4 9.6 -7.4 8.69 C-7.35 2.06 -6.9 0.05 0 0 Z " fill="#1487B2" transform="translate(96.12169986963272,177.7371752858162)"/>
<path d="M0 0 C6.51 -0.04 13.01 -0.06 19.52 -0.08 C24.28 -0.1 29.04 -0.13 33.81 -0.17 C37.25 -0.2 40.68 -0.2 44.12 -0.21 C45.28 -0.22 46.43 -0.24 47.62 -0.25 C63.7 -0.24 79.44 4.63 91.14 16.1 C91.14 16.76 91.14 17.42 91.14 18.1 C91.71 18.34 92.28 18.59 92.87 18.84 C95.51 20.3 97.29 22 99.42 24.14 C100.27 24.98 101.11 25.83 101.99 26.7 C102.91 27.63 103.83 28.56 104.78 29.52 C105.77 30.5 106.76 31.49 107.74 32.48 C110.43 35.16 113.1 37.84 115.77 40.53 C118.57 43.34 121.38 46.15 124.18 48.96 C129.5 54.28 134.81 59.61 140.13 64.94 C146.15 70.99 152.18 77.03 158.21 83.07 C168.53 93.41 178.84 103.75 189.15 114.09 C197 121.97 197 121.97 204.9 129.81 C208.78 133.63 212.64 137.47 216.51 141.31 C218.17 142.95 219.83 144.6 221.5 146.24 C223.93 148.62 226.34 151.02 228.75 153.42 C229.49 154.14 230.22 154.86 230.98 155.6 C248.31 172.93 253.21 192.14 253.28 216.07 C253.28 217.49 253.28 218.92 253.28 220.34 C253.28 221.88 253.28 223.41 253.29 224.94 C253.29 229.14 253.3 233.34 253.3 237.53 C253.3 242.06 253.31 246.6 253.31 251.13 C253.33 261.03 253.33 270.93 253.34 280.83 C253.34 287.02 253.34 293.2 253.35 299.39 C253.36 316.53 253.37 333.67 253.37 350.8 C253.37 351.9 253.37 353 253.37 354.12 C253.37 355.22 253.37 356.32 253.37 357.45 C253.38 359.68 253.38 361.9 253.38 364.13 C253.38 365.23 253.38 366.34 253.38 367.47 C253.38 385.36 253.4 403.25 253.42 421.14 C253.45 439.53 253.46 457.91 253.46 476.29 C253.46 486.61 253.47 496.93 253.48 507.24 C253.5 516.02 253.5 524.8 253.5 533.59 C253.49 538.06 253.49 542.54 253.51 547.02 C253.52 551.12 253.52 555.23 253.51 559.33 C253.5 560.81 253.51 562.29 253.52 563.77 C253.58 575 253.33 586.42 245.82 595.41 C241.68 599.56 237.33 602.95 231.29 603.22 C230.12 603.23 228.95 603.23 227.74 603.23 C226.76 603.23 226.76 603.23 225.76 603.23 C223.55 603.24 221.34 603.24 219.13 603.24 C217.53 603.24 215.94 603.24 214.34 603.25 C209.95 603.25 205.55 603.26 201.16 603.26 C196.43 603.26 191.69 603.27 186.96 603.27 C176.6 603.29 166.24 603.29 155.88 603.3 C149.41 603.3 142.94 603.3 136.47 603.31 C118.56 603.32 100.65 603.33 82.74 603.33 C81.6 603.33 80.45 603.33 79.27 603.34 C78.12 603.34 76.97 603.34 75.79 603.34 C73.46 603.34 71.13 603.34 68.8 603.34 C67.64 603.34 66.49 603.34 65.3 603.34 C46.58 603.34 27.87 603.36 9.16 603.38 C-10.05 603.41 -29.26 603.42 -48.47 603.42 C-59.26 603.42 -70.04 603.43 -80.83 603.44 C-90.02 603.46 -99.21 603.47 -108.39 603.46 C-113.08 603.45 -117.77 603.45 -122.45 603.47 C-126.75 603.48 -131.04 603.48 -135.34 603.47 C-136.89 603.47 -138.44 603.47 -139.98 603.48 C-157.26 603.57 -170.69 600.23 -183.39 588.19 C-184.04 587.58 -184.68 586.98 -185.34 586.35 C-194.26 577.9 -202.92 569.17 -211.6 560.47 C-214.09 557.97 -216.58 555.47 -219.08 552.97 C-223.79 548.27 -228.49 543.55 -233.19 538.84 C-238.53 533.49 -243.88 528.14 -249.23 522.78 C-258.37 513.64 -267.5 504.49 -276.63 495.34 C-278.09 493.88 -279.55 492.42 -281 490.96 C-282.14 489.82 -283.28 488.68 -284.41 487.53 C-286.45 485.47 -288.47 483.61 -290.74 481.78 C-303.51 471.26 -314.45 455.63 -316.86 439.1 C-317.16 433.44 -317.14 427.8 -317.13 422.14 C-317.14 420.4 -317.14 418.67 -317.15 416.94 C-317.16 412.19 -317.16 407.44 -317.15 402.69 C-317.15 397.56 -317.17 392.44 -317.17 387.31 C-317.19 377.27 -317.2 367.23 -317.2 357.19 C-317.2 349.03 -317.2 340.88 -317.21 332.72 C-317.23 309.58 -317.24 286.44 -317.23 263.3 C-317.23 262.06 -317.23 260.81 -317.23 259.52 C-317.23 258.28 -317.23 257.03 -317.23 255.74 C-317.23 235.5 -317.25 215.26 -317.28 195.02 C-317.31 174.24 -317.32 153.45 -317.32 132.67 C-317.32 121 -317.33 109.33 -317.35 97.66 C-317.37 87.73 -317.37 77.8 -317.36 67.86 C-317.35 62.8 -317.35 57.73 -317.37 52.67 C-317.38 48.02 -317.38 43.38 -317.36 38.74 C-317.36 37.07 -317.36 35.39 -317.37 33.72 C-317.5 14.19 -317.5 14.19 -311.11 7.17 C-304.67 1.16 -298.6 0.8 -290.11 0.82 C-288.47 0.81 -288.47 0.81 -286.79 0.8 C-283.1 0.78 -279.41 0.78 -275.72 0.78 C-273.08 0.77 -270.43 0.76 -267.79 0.75 C-261.33 0.72 -254.87 0.71 -248.41 0.7 C-240.81 0.68 -233.21 0.66 -225.61 0.63 C-211.96 0.59 -198.31 0.55 -184.66 0.52 C-171.59 0.49 -158.52 0.45 -145.45 0.41 C-144.66 0.41 -143.86 0.41 -143.04 0.41 C-139.05 0.39 -135.05 0.38 -131.05 0.37 C-110.78 0.31 -90.51 0.25 -70.24 0.21 C-69.49 0.2 -68.74 0.2 -67.97 0.2 C-61.35 0.19 -54.72 0.17 -48.1 0.16 C-32.07 0.13 -16.03 0.09 0 0 Z M-310.18 9.35 C-310.63 9.87 -311.08 10.39 -311.54 10.93 C-316.73 19.44 -316.29 28.02 -316.25 37.67 C-316.26 39.37 -316.26 41.07 -316.27 42.78 C-316.28 47.45 -316.28 52.12 -316.27 56.79 C-316.27 61.83 -316.28 66.88 -316.29 71.92 C-316.31 81.79 -316.31 91.67 -316.3 101.54 C-316.3 109.57 -316.3 117.61 -316.3 125.64 C-316.31 126.78 -316.31 127.92 -316.31 129.1 C-316.31 131.42 -316.31 133.75 -316.31 136.07 C-316.32 157.85 -316.32 179.64 -316.31 201.43 C-316.3 221.34 -316.31 241.25 -316.33 261.16 C-316.36 281.62 -316.37 302.08 -316.36 322.54 C-316.36 334.02 -316.36 345.5 -316.38 356.98 C-316.39 366.76 -316.39 376.53 -316.38 386.31 C-316.37 391.3 -316.37 396.28 -316.38 401.26 C-316.4 405.84 -316.39 410.41 -316.37 414.98 C-316.37 416.63 -316.37 418.27 -316.38 419.91 C-316.52 444.18 -308.44 461.39 -291.49 478.68 C-287.96 482.24 -284.41 485.78 -280.85 489.31 C-279.3 490.85 -277.76 492.39 -276.21 493.93 C-272.18 497.96 -268.13 501.99 -264.09 506.01 C-259.97 510.11 -255.86 514.21 -251.75 518.31 C-245.11 524.93 -238.47 531.54 -231.83 538.15 C-231.25 538.73 -230.66 539.31 -230.06 539.91 C-229.52 540.46 -228.97 541 -228.41 541.56 C-226.97 542.99 -225.54 544.43 -224.11 545.87 C-221.6 548.36 -219 550.73 -216.36 553.1 C-211.2 557.74 -206.31 562.63 -201.46 567.6 C-199.17 569.95 -196.86 572.29 -194.56 574.63 C-193.35 575.85 -192.15 577.08 -190.95 578.31 C-179.68 589.9 -166.84 601.51 -149.79 602.23 C-148.62 602.23 -147.46 602.23 -146.26 602.23 C-145.28 602.24 -145.28 602.24 -144.29 602.24 C-142.1 602.25 -139.9 602.25 -137.71 602.25 C-136.13 602.25 -134.54 602.26 -132.96 602.26 C-128.6 602.28 -124.24 602.28 -119.88 602.29 C-115.18 602.29 -110.48 602.3 -105.78 602.31 C-94.43 602.34 -83.08 602.35 -71.73 602.37 C-68.52 602.37 -65.31 602.37 -62.11 602.38 C-42.2 602.4 -22.29 602.43 -2.38 602.44 C2.23 602.44 6.84 602.44 11.45 602.45 C12.6 602.45 13.75 602.45 14.93 602.45 C33.49 602.46 52.06 602.5 70.63 602.54 C89.69 602.58 108.76 602.6 127.82 602.61 C138.52 602.61 149.23 602.62 159.93 602.66 C169.05 602.68 178.16 602.7 187.27 602.68 C191.92 602.68 196.57 602.68 201.22 602.71 C205.48 602.73 209.74 602.73 214 602.71 C215.54 602.71 217.08 602.71 218.61 602.73 C227.33 602.81 234.85 602.42 242.14 597.1 C251.26 587.83 251.58 576.99 251.52 564.62 C251.53 563.05 251.53 561.48 251.54 559.9 C251.55 555.6 251.55 551.3 251.54 546.99 C251.54 542.34 251.55 537.69 251.56 533.05 C251.58 523.94 251.58 514.84 251.57 505.74 C251.57 498.34 251.57 490.93 251.58 483.53 C251.58 482.48 251.58 481.42 251.58 480.34 C251.58 478.2 251.58 476.05 251.58 473.91 C251.6 453.83 251.59 433.74 251.58 413.66 C251.57 395.3 251.58 376.95 251.61 358.59 C251.63 339.73 251.64 320.87 251.63 302.01 C251.63 291.42 251.63 280.84 251.65 270.26 C251.67 261.25 251.67 252.23 251.65 243.22 C251.64 238.63 251.64 234.03 251.65 229.44 C251.67 225.23 251.66 221.01 251.64 216.8 C251.64 215.28 251.64 213.77 251.65 212.25 C251.78 192.43 246.83 175.17 232.71 160.69 C231.52 159.49 230.33 158.29 229.14 157.1 C228.32 156.27 227.51 155.45 226.67 154.61 C221.28 149.18 215.88 143.78 210.46 138.4 C208.01 135.97 205.57 133.53 203.14 131.1 C202.44 130.42 201.75 129.74 201.04 129.03 C195.53 123.61 195.53 123.61 193.14 120.53 C191.38 118.39 189.7 116.8 187.6 115.02 C182.78 110.85 178.28 106.39 173.78 101.87 C172.48 100.58 172.48 100.58 171.16 99.26 C169.34 97.44 167.53 95.63 165.72 93.81 C162.95 91.04 160.18 88.27 157.4 85.5 C155.63 83.73 153.86 81.96 152.09 80.19 C151.27 79.36 150.44 78.54 149.6 77.7 C145.56 73.64 141.73 69.55 138.14 65.1 C135.58 62.41 132.99 59.97 130.14 57.6 C127.3 55.23 124.72 52.73 122.14 50.1 C121.27 49.21 121.27 49.21 120.38 48.31 C119.04 46.95 117.7 45.58 116.36 44.22 C113.24 41.05 110.11 37.89 106.98 34.72 C105.34 33.06 103.71 31.4 102.07 29.73 C82.48 9.62 82.48 9.62 56.1 1.97 C55.02 1.97 53.94 1.96 52.83 1.96 C51.58 1.96 50.32 1.95 49.03 1.95 C47.65 1.95 46.26 1.95 44.88 1.95 C43.4 1.95 41.92 1.94 40.45 1.94 C36.4 1.93 32.34 1.92 28.29 1.92 C23.92 1.92 19.55 1.91 15.17 1.9 C4.62 1.88 -5.94 1.87 -16.49 1.86 C-21.46 1.86 -26.43 1.85 -31.4 1.85 C-47.93 1.83 -64.45 1.81 -80.97 1.81 C-85.26 1.81 -89.55 1.8 -93.83 1.8 C-95.43 1.8 -95.43 1.8 -97.06 1.8 C-114.33 1.79 -131.59 1.77 -148.86 1.73 C-166.59 1.7 -184.31 1.68 -202.04 1.68 C-211.99 1.68 -221.95 1.67 -231.9 1.64 C-240.37 1.62 -248.85 1.61 -257.32 1.62 C-261.64 1.63 -265.97 1.63 -270.29 1.61 C-274.25 1.59 -278.21 1.59 -282.17 1.61 C-283.6 1.61 -285.03 1.6 -286.46 1.59 C-295.58 1.52 -303.92 1.74 -310.18 9.35 Z " fill="#FBFDFC" transform="translate(323.8639678955078,2.9031200408935547)"/>
<path d="M0 0 C42.16 -0.09 84.32 -0.16 126.48 -0.2 C131.45 -0.21 136.43 -0.21 141.41 -0.22 C142.89 -0.22 142.89 -0.22 144.41 -0.22 C160.45 -0.24 176.5 -0.27 192.54 -0.31 C209 -0.35 225.47 -0.37 241.93 -0.38 C252.09 -0.38 262.25 -0.4 272.4 -0.43 C279.37 -0.45 286.33 -0.46 293.3 -0.45 C297.32 -0.45 301.34 -0.46 305.36 -0.48 C309.04 -0.5 312.72 -0.5 316.4 -0.48 C318.36 -0.48 320.32 -0.5 322.28 -0.52 C330.67 -0.46 336.03 0.63 342.57 6.18 C343.62 7.3 343.62 7.3 344.69 8.44 C345.44 9.23 346.2 10.02 346.97 10.83 C347.64 11.54 348.31 12.26 349 13 C352.39 16.47 355.88 19.62 359.64 22.67 C360.09 23.11 360.54 23.55 361 24 C361 24.66 361 25.32 361 26 C361.99 26.33 362.98 26.66 364 27 C365.44 28.46 365.44 28.46 367 30.38 C373.49 38.02 380.67 44.95 388.29 51.45 C389.93 52.94 391.3 54.46 392.69 56.19 C394.94 58.92 397.21 60.85 400 63 C402.31 65.12 402.31 65.12 404 67 C404 67.66 404 68.32 404 69 C404.56 69.24 405.12 69.47 405.7 69.72 C408.52 71.29 410.48 73.21 412.75 75.5 C413.55 76.29 414.35 77.09 415.17 77.91 C417 80 417 80 417 82 C417.99 82.33 418.98 82.66 420 83 C421.53 84.55 421.53 84.55 423.17 86.54 C427.01 91.06 431.11 95.25 435.31 99.44 C436.03 100.16 436.74 100.87 437.48 101.62 C438.16 102.3 438.85 102.98 439.55 103.68 C440.17 104.3 440.78 104.91 441.42 105.54 C442.95 107.09 442.95 107.09 445 108 C445 108.66 445 109.32 445 110 C445.99 110.33 446.98 110.66 448 111 C448.84 112.05 448.84 112.05 449.69 113.12 C451.59 115.49 453.27 117.17 455.55 119.1 C460.41 123.3 464.96 127.77 469.5 132.31 C470.7 133.5 470.7 133.5 471.93 134.71 C488.52 151.26 488.52 151.26 489.25 159.97 C489.25 161.64 489.25 161.64 489.25 163.35 C489.25 164.64 489.25 165.92 489.26 167.25 C489.25 168.68 489.25 170.11 489.24 171.53 C489.24 173.05 489.24 174.57 489.25 176.09 C489.25 180.26 489.24 184.43 489.23 188.61 C489.22 193.11 489.23 197.61 489.23 202.11 C489.23 209.9 489.22 217.7 489.21 225.5 C489.2 236.77 489.19 248.04 489.19 259.31 C489.18 277.6 489.17 295.89 489.15 314.18 C489.13 331.94 489.12 349.71 489.11 367.48 C489.11 368.57 489.11 369.67 489.11 370.79 C489.11 376.29 489.1 381.78 489.1 387.27 C489.08 432.85 489.04 478.42 489 524 C443.24 524.07 397.48 524.12 351.72 524.15 C346.32 524.16 340.92 524.16 335.52 524.16 C334.45 524.17 333.37 524.17 332.26 524.17 C314.85 524.18 297.43 524.2 280.01 524.23 C262.15 524.26 244.28 524.28 226.42 524.28 C215.39 524.29 204.36 524.3 193.33 524.32 C185.78 524.34 178.22 524.34 170.66 524.34 C166.3 524.34 161.93 524.34 157.57 524.36 C153.58 524.37 149.58 524.37 145.59 524.36 C144.14 524.36 142.7 524.37 141.25 524.37 C139.29 524.39 137.32 524.38 135.36 524.37 C133.72 524.37 133.72 524.37 132.05 524.37 C119.89 522.89 110.07 509.22 101.91 501.05 C100.84 499.98 99.77 498.92 98.7 497.85 C95.82 494.98 92.95 492.11 90.07 489.24 C88.28 487.44 86.48 485.65 84.68 483.85 C78.4 477.58 72.12 471.3 65.84 465.03 C60 459.18 54.15 453.35 48.3 447.51 C43.26 442.49 38.23 437.46 33.2 432.43 C30.2 429.43 27.2 426.43 24.2 423.44 C21.38 420.63 18.56 417.82 15.75 415 C14.72 413.97 13.69 412.94 12.66 411.91 C11.24 410.5 9.84 409.09 8.43 407.68 C7.64 406.89 6.86 406.1 6.04 405.29 C0.9 399.52 -0.13 394.92 -0.12 387.35 C-0.12 386.68 -0.13 386.01 -0.13 385.32 C-0.13 383.07 -0.12 380.82 -0.12 378.56 C-0.12 376.93 -0.12 375.3 -0.12 373.68 C-0.13 369.19 -0.12 364.71 -0.12 360.23 C-0.11 355.39 -0.11 350.56 -0.11 345.73 C-0.11 337.36 -0.11 328.98 -0.11 320.61 C-0.1 308.5 -0.09 296.4 -0.09 284.29 C-0.09 264.65 -0.08 245.01 -0.08 225.36 C-0.07 206.28 -0.06 187.2 -0.05 168.12 C-0.05 166.94 -0.05 165.76 -0.05 164.55 C-0.05 158.65 -0.05 152.75 -0.05 146.86 C-0.04 97.9 -0.02 48.95 0 0 Z M1 2 C0.9 4.06 0.87 6.12 0.87 8.18 C0.87 8.83 0.87 9.49 0.87 10.17 C0.86 12.39 0.86 14.62 0.87 16.84 C0.86 18.44 0.86 20.04 0.86 21.64 C0.85 26.06 0.85 30.48 0.85 34.9 C0.85 39.66 0.85 44.42 0.84 49.18 C0.84 58.51 0.83 67.84 0.83 77.17 C0.83 84.75 0.83 92.34 0.83 99.92 C0.82 121.41 0.81 142.89 0.81 164.38 C0.81 165.54 0.81 166.69 0.81 167.89 C0.81 169.05 0.81 170.21 0.81 171.41 C0.82 190.22 0.81 209.03 0.79 227.84 C0.78 247.13 0.77 266.43 0.77 285.73 C0.77 296.57 0.77 307.41 0.76 318.25 C0.75 327.48 0.75 336.71 0.75 345.95 C0.76 350.66 0.76 355.37 0.75 360.08 C0.74 364.39 0.74 368.71 0.75 373.02 C0.75 374.58 0.75 376.14 0.74 377.7 C0.74 379.82 0.74 381.94 0.75 384.07 C0.75 385.24 0.75 386.42 0.75 387.64 C1.17 393.36 2.53 398.02 6.12 402.5 C6.66 403.19 7.2 403.88 7.76 404.59 C9.62 406.59 11.47 408.31 13.54 410.09 C19.04 414.81 24.09 419.98 29.19 425.12 C30.17 426.11 31.15 427.1 32.13 428.08 C33.94 429.89 35.74 431.71 37.54 433.52 C39.25 435.25 40.98 436.96 42.71 438.67 C45 441 45 441 46.69 443.31 C47.34 444.15 47.34 444.15 48 445 C48.66 445 49.32 445 50 445 C50 445.66 50 446.32 50 447 C52.33 449.67 52.33 449.67 55 452 C55.66 452 56.32 452 57 452 C57 452.66 57 453.32 57 454 C57.66 454 58.32 454 59 454 C59.5 455.49 59.5 455.49 60 457 C61.59 458.62 61.59 458.62 63.56 460.2 C67.92 463.9 71.97 467.83 76.01 471.88 C77.1 472.97 77.1 472.97 78.22 474.08 C79.75 475.61 81.27 477.14 82.8 478.67 C85.12 481 87.45 483.32 89.78 485.64 C91.27 487.14 92.76 488.63 94.26 490.12 C95.29 491.15 95.29 491.15 96.34 492.2 C100.03 495.9 103.5 499.67 106.76 503.75 C107.38 504.37 107.38 504.37 108 505 C108.66 505 109.32 505 110 505 C110 505.66 110 506.32 110 507 C110.66 507 111.32 507 112 507 C112.22 507.56 112.44 508.13 112.66 508.71 C114.43 511.73 116.65 513.44 119.38 515.62 C120.81 516.79 120.81 516.79 122.27 517.98 C126.74 521.29 129.47 522.25 135.08 522.25 C136.33 522.25 137.59 522.26 138.88 522.26 C140.28 522.26 141.67 522.25 143.07 522.25 C144.54 522.25 146.02 522.25 147.5 522.25 C151.57 522.26 155.65 522.25 159.72 522.25 C164.1 522.24 168.49 522.25 172.88 522.25 C181.48 522.25 190.07 522.25 198.67 522.24 C208.67 522.23 218.68 522.23 228.68 522.23 C246.52 522.23 264.36 522.22 282.2 522.21 C299.53 522.19 316.86 522.18 334.19 522.19 C335.26 522.19 336.33 522.19 337.43 522.19 C339.02 522.19 339.02 522.19 340.66 522.19 C360.36 522.19 380.07 522.18 399.77 522.17 C406.76 522.17 413.74 522.17 420.72 522.17 C429.22 522.17 437.71 522.16 446.21 522.15 C450.55 522.15 454.89 522.14 459.23 522.15 C463.2 522.15 467.17 522.14 471.13 522.14 C472.58 522.13 474.02 522.13 475.46 522.14 C477.4 522.14 479.35 522.13 481.3 522.13 C482.38 522.13 483.47 522.13 484.58 522.13 C486.95 522.27 486.95 522.27 488 521 C488.1 519.09 488.13 517.18 488.13 515.26 C488.14 513.38 488.14 513.38 488.15 511.46 C488.15 510.05 488.15 508.65 488.15 507.24 C488.15 505.75 488.15 504.27 488.16 502.78 C488.17 498.69 488.17 494.59 488.17 490.5 C488.18 486.09 488.19 481.67 488.2 477.26 C488.22 466.6 488.23 455.94 488.24 445.27 C488.24 440.26 488.25 435.24 488.25 430.22 C488.27 413.54 488.28 396.86 488.29 380.18 C488.29 375.85 488.29 371.51 488.3 367.18 C488.3 366.11 488.3 365.03 488.3 363.92 C488.3 346.48 488.33 329.05 488.36 311.61 C488.4 293.71 488.41 275.82 488.42 257.93 C488.42 247.88 488.43 237.83 488.45 227.78 C488.48 219.22 488.48 210.66 488.47 202.09 C488.47 197.73 488.47 193.36 488.49 188.99 C488.51 184.99 488.51 180.99 488.49 176.99 C488.49 175.54 488.49 174.1 488.51 172.65 C488.59 161.21 487.16 153.67 479.08 145.28 C478.6 144.77 478.12 144.27 477.63 143.76 C476.1 142.16 474.55 140.58 473 139 C472.49 138.48 471.98 137.96 471.46 137.42 C467.59 133.45 463.68 129.52 459.76 125.6 C458.47 124.31 457.18 123.01 455.89 121.72 C452.43 118.24 448.96 114.77 445.49 111.29 C443.32 109.12 441.15 106.94 438.98 104.77 C432.17 97.95 425.36 91.13 418.55 84.31 C410.71 76.47 402.88 68.62 395.05 60.76 C388.98 54.67 382.9 48.58 376.82 42.49 C373.19 38.87 369.57 35.24 365.96 31.61 C362.56 28.2 359.16 24.79 355.75 21.39 C354.5 20.15 353.26 18.9 352.02 17.65 C341.51 6.14 341.51 6.14 327.53 0.87 C326.53 0.87 325.54 0.87 324.51 0.87 C323.36 0.87 322.22 0.87 321.03 0.87 C319.77 0.87 318.5 0.87 317.19 0.87 C315.84 0.87 314.48 0.87 313.13 0.87 C309.4 0.86 305.67 0.87 301.94 0.87 C297.92 0.87 293.9 0.87 289.88 0.87 C282 0.86 274.12 0.86 266.24 0.86 C259.84 0.87 253.44 0.87 247.04 0.87 C246.13 0.87 245.22 0.87 244.28 0.87 C242.43 0.87 240.59 0.87 238.74 0.86 C221.4 0.86 204.06 0.87 186.73 0.87 C171.83 0.88 156.94 0.87 142.05 0.87 C124.77 0.86 107.49 0.86 90.21 0.87 C88.37 0.87 86.53 0.87 84.69 0.87 C83.34 0.87 83.34 0.87 81.95 0.87 C75.55 0.87 69.16 0.87 62.76 0.86 C54.97 0.86 47.18 0.86 39.39 0.87 C35.41 0.87 31.44 0.87 27.46 0.87 C23.82 0.86 20.19 0.87 16.55 0.87 C14.6 0.87 12.65 0.87 10.7 0.87 C9.56 0.87 8.41 0.87 7.24 0.87 C5.75 0.87 5.75 0.87 4.22 0.87 C2.03 0.75 2.03 0.75 1 2 Z " fill="#F9FBFB" transform="translate(47,43)"/>
<path d="M0 0 C23.86 -0.59 50.2 4.3 68.18 21.12 C68.92 21.81 69.67 22.5 70.43 23.21 C79.65 32.57 88.23 47.78 88.36 61.24 C88.3 62.19 88.24 63.14 88.18 64.12 C80.71 66.74 73.13 68.83 65.47 70.82 C63.35 71.37 61.23 71.94 59.11 72.51 C57.75 72.86 56.39 73.22 55.03 73.57 C53.81 73.89 52.59 74.21 51.33 74.54 C48.42 75.07 46.85 75.3 44.18 74.12 C43.38 72.18 43.38 72.18 42.86 69.68 C40.35 60.24 34.52 53.08 26.18 48.12 C15.38 42.11 2.6 40.37 -9.39 43.3 C-18.11 45.99 -24.35 48.98 -28.79 57.3 C-30.9 63.03 -31.28 68.96 -28.69 74.59 C-27.37 76.73 -27.37 76.73 -25.92 78.59 C-24.82 80.12 -24.82 80.12 -24.82 82.12 C-13.14 88.07 -0.83 91.72 11.68 95.49 C22.49 98.76 33.28 102.07 43.96 105.77 C44.75 106.04 45.55 106.31 46.37 106.59 C62.5 112.26 80.26 121.63 88.03 137.75 C97.17 158.16 97.52 177.65 89.55 198.74 C82.69 215.73 69.26 227 52.94 234.63 C24.08 246.35 -12.91 245.37 -41.7 233.66 C-47.54 230.78 -52.66 227.06 -57.82 223.12 C-58.55 222.59 -59.28 222.06 -60.03 221.51 C-74.62 209.98 -83.54 191.27 -85.82 173.12 C-85.33 172.13 -85.33 172.13 -84.82 171.12 C-82.82 170.64 -80.79 170.26 -78.76 169.93 C-70.29 168.43 -62.15 165.94 -53.95 163.37 C-52.96 163.06 -51.96 162.76 -50.94 162.45 C-50.05 162.17 -49.16 161.89 -48.24 161.6 C-45.66 161.08 -44.25 161.09 -41.82 162.12 C-40.59 164.71 -40.59 164.71 -39.51 168.05 C-35.37 179.57 -28.4 189.17 -17.38 194.91 C-4.03 201.03 11.23 202.27 25.42 198.16 C33.64 195.05 39.52 190.8 44.27 183.42 C46.71 177.23 46.24 168.63 44.32 162.31 C36.16 147.83 10.65 144.27 -3.81 139.92 C-44.54 127.66 -44.54 127.66 -57.82 116.12 C-59.31 115.13 -59.31 115.13 -60.82 114.12 C-60.82 113.46 -60.82 112.8 -60.82 112.12 C-61.48 112.12 -62.14 112.12 -62.82 112.12 C-76.18 96.39 -80.06 79.49 -78.62 59.2 C-77.08 46.69 -71.38 34.34 -62.82 25.12 C-61.88 24.07 -61.88 24.07 -60.92 23.01 C-56.37 18.21 -51.51 14.49 -45.82 11.12 C-45.13 10.69 -44.44 10.26 -43.73 9.81 C-30.63 2.4 -14.75 0.61 0 0 Z M-59.82 25.12 C-60.46 25.73 -61.09 26.34 -61.74 26.97 C-72.92 38.55 -77.35 54.46 -77.25 70.19 C-76.7 87.11 -70.63 101.27 -58.75 113.39 C-54.46 117.39 -49.96 120.33 -44.82 123.12 C-43.94 123.63 -43.05 124.14 -42.13 124.66 C-33.96 129.08 -25.34 131.66 -16.48 134.31 C-11.79 135.74 -7.12 137.24 -2.45 138.74 C3.43 140.62 9.32 142.47 15.24 144.24 C39.48 151.73 39.48 151.73 46.27 163.19 C49.21 169.43 48.63 175.33 46.43 181.74 C43.65 188.82 39.86 193.35 33.18 197.12 C18.59 203.38 2.3 204.39 -12.82 199.12 C-25.58 193.4 -34.59 184.63 -40.29 171.82 C-41.22 169.27 -42.08 166.73 -42.82 164.12 C-51.59 164.74 -59.91 167 -68.39 169.18 C-69.89 169.56 -71.39 169.94 -72.89 170.32 C-76.54 171.25 -80.18 172.18 -83.82 173.12 C-83.38 175.32 -82.92 177.52 -82.46 179.73 C-82.21 180.95 -81.96 182.18 -81.7 183.44 C-77.17 202.44 -63.88 217.58 -47.82 228.12 C-39.94 232.76 -31.7 235.94 -22.82 238.12 C-22.1 238.29 -21.38 238.47 -20.64 238.65 C-11.45 240.63 -2.18 240.56 7.18 240.55 C8.48 240.56 8.48 240.56 9.81 240.56 C22.59 240.54 34.16 239.83 46.18 235.12 C47.3 234.72 48.42 234.33 49.57 233.92 C66.03 227.69 79.86 216.34 87.18 200.12 C94.6 180.59 96.11 160.34 87.58 140.93 C85.55 136.87 83.18 133.52 80.18 130.12 C79.55 129.39 78.93 128.66 78.29 127.91 C70.16 119.08 60.01 113.95 48.89 109.91 C48.08 109.61 47.28 109.32 46.44 109.02 C33.62 104.4 20.55 100.47 7.53 96.45 C4.04 95.37 0.56 94.27 -2.92 93.18 C-3.97 92.86 -5.02 92.54 -6.1 92.21 C-14.42 89.57 -24.23 86.03 -28.82 78.12 C-31.66 71.69 -33.35 65.37 -30.91 58.57 C-28.5 53.32 -25.91 49.07 -20.82 46.12 C-20.04 45.65 -19.25 45.19 -18.44 44.71 C-7.9 39.43 4.91 39.52 16.24 42.3 C27.65 46.11 35.9 51.54 42.11 61.98 C43.9 65.56 45.05 69.29 46.18 73.12 C53.91 71.84 61.43 70.1 68.99 68.05 C80.91 64.84 80.91 64.84 86.18 64.12 C85.84 48.89 79.33 35.36 68.93 24.37 C48.06 4.59 19.69 2.23 -7.6 2.83 C-27.76 3.48 -45.7 10.58 -59.82 25.12 Z " fill="#EAF6ED" transform="translate(401.82421875,175.8828125)"/>
<path d="M0 0 C2.04 0.03 4.09 0.05 6.13 0.07 C9 0.1 11.87 0.15 14.73 0.21 C15.57 0.22 16.41 0.22 17.27 0.23 C33.63 0.7 44.7 16.26 55.49 27.04 C56.8 28.35 58.11 29.65 59.42 30.96 C62.96 34.48 66.49 38.01 70.02 41.53 C72.23 43.74 74.44 45.95 76.65 48.15 C83.58 55.07 90.51 61.99 97.44 68.92 C105.41 76.88 113.39 84.85 121.38 92.8 C127.57 98.97 133.75 105.15 139.94 111.33 C143.62 115.01 147.31 118.69 151 122.37 C154.47 125.82 157.93 129.28 161.39 132.75 C162.66 134.01 163.92 135.28 165.2 136.54 C183.41 154.62 183.41 154.62 184.4 167.05 C184.4 168.14 184.4 169.24 184.4 170.37 C184.4 171.64 184.41 172.91 184.42 174.22 C184.41 175.62 184.41 177.02 184.41 178.42 C184.41 179.92 184.41 181.42 184.42 182.91 C184.43 187.02 184.42 191.13 184.42 195.23 C184.42 199.66 184.43 204.09 184.43 208.52 C184.45 217.2 184.45 225.88 184.45 234.55 C184.45 241.6 184.45 248.65 184.45 255.7 C184.45 256.7 184.45 257.7 184.45 258.74 C184.45 260.77 184.46 262.81 184.46 264.85 C184.47 283.95 184.47 303.05 184.46 322.15 C184.45 339.64 184.47 357.13 184.48 374.62 C184.5 392.57 184.51 410.52 184.51 428.47 C184.51 438.55 184.51 448.63 184.52 458.71 C184.53 467.29 184.54 475.87 184.52 484.45 C184.52 488.83 184.52 493.21 184.53 497.59 C184.54 501.59 184.54 505.59 184.52 509.6 C184.52 511.05 184.52 512.5 184.53 513.96 C184.54 515.92 184.53 517.89 184.52 519.86 C184.52 520.95 184.52 522.05 184.52 523.17 C184.14 525.86 184.14 525.86 182.79 527.71 C180.25 529.48 178.04 529.3 174.97 529.36 C173.02 529.42 173.02 529.42 171.04 529.47 C169.6 529.49 168.16 529.51 166.71 529.53 C165.2 529.57 163.69 529.6 162.17 529.63 C144.35 530 126.53 530.05 108.7 530.04 C103.9 530.04 99.09 530.06 94.29 530.07 C90.53 530.09 86.77 530.09 83.02 530.09 C81.24 530.09 79.47 530.09 77.69 530.1 C75.23 530.11 72.78 530.11 70.32 530.1 C69.6 530.11 68.89 530.11 68.16 530.12 C63.16 530.09 58.91 529.2 54.14 527.86 C54.14 527.53 54.14 527.2 54.14 526.86 C96.05 526.86 137.96 526.86 181.14 526.86 C181.11 480.24 181.05 433.62 180.97 387.01 C180.96 381.5 180.95 376 180.94 370.5 C180.94 369.4 180.93 368.31 180.93 367.18 C180.9 349.44 180.88 331.7 180.87 313.95 C180.86 295.75 180.83 277.55 180.79 259.35 C180.76 248.11 180.75 236.88 180.75 225.65 C180.75 217.94 180.74 210.24 180.71 202.54 C180.7 198.1 180.69 193.65 180.7 189.21 C180.71 185.14 180.7 181.07 180.67 177 C180.67 175.53 180.67 174.06 180.68 172.59 C180.73 162.76 180.08 155.48 173 148.1 C172.12 147.18 172.12 147.18 171.22 146.23 C170.6 145.59 169.97 144.95 169.33 144.3 C168.68 143.62 168.03 142.94 167.36 142.23 C165.3 140.1 163.22 137.98 161.14 135.86 C160.46 135.16 159.78 134.46 159.08 133.74 C157.08 131.71 155.09 129.69 153.08 127.67 C152.48 127.06 151.87 126.45 151.24 125.82 C147.69 122.28 144.03 119.02 140.14 115.86 C138.27 114.17 138.27 114.17 137.14 112.86 C137.14 112.2 137.14 111.54 137.14 110.86 C136.58 110.62 136.02 110.38 135.44 110.14 C132.62 108.56 130.69 106.64 128.41 104.35 C127.5 103.45 126.6 102.54 125.67 101.61 C124.97 100.9 124.97 100.9 124.26 100.18 C122.85 98.75 121.44 97.34 120.03 95.93 C115.38 91.25 110.87 86.51 106.57 81.51 C104.89 79.57 103.15 77.73 101.33 75.92 C100.77 75.36 100.21 74.79 99.63 74.21 C98.17 72.76 98.17 72.76 96.14 71.86 C96.14 71.2 96.14 70.54 96.14 69.86 C94.82 69.2 93.5 68.54 92.14 67.86 C92.14 67.2 92.14 66.54 92.14 65.86 C91.15 65.53 90.16 65.2 89.14 64.86 C89.14 64.2 89.14 63.54 89.14 62.86 C88.59 62.65 88.03 62.45 87.46 62.23 C84.89 60.71 83.45 58.87 81.61 56.55 C80.02 54.72 78.33 53.21 76.48 51.65 C72.16 47.92 68.11 43.97 64.08 39.92 C63.41 39.26 62.75 38.59 62.06 37.91 C58.08 33.92 54.3 29.83 50.65 25.54 C48.69 23.35 46.48 21.64 44.14 19.86 C41.9 17.68 39.7 15.47 37.59 13.16 C32.33 7.58 26.44 2.82 18.53 2.22 C16.88 2.19 15.23 2.18 13.59 2.2 C12.68 2.19 11.77 2.18 10.83 2.17 C7.86 2.14 4.89 2.15 1.92 2.15 C-0.15 2.14 -2.22 2.12 -4.29 2.11 C-9.72 2.07 -15.15 2.06 -20.58 2.05 C-26.14 2.04 -31.69 2.01 -37.24 1.97 C-48.11 1.91 -58.98 1.87 -69.86 1.86 C-69.86 1.53 -69.86 1.2 -69.86 0.86 C-46.57 0.16 -23.29 -0.37 0 0 Z " fill="#44B747" transform="translate(354.8554382324219,40.141143798828125)"/>
<path d="M0 0 C0.72 0.01 1.43 0.01 2.17 0.02 C3.31 0.01 3.31 0.01 4.48 0.01 C7.04 0 9.6 0.01 12.16 0.02 C13.99 0.02 15.83 0.02 17.66 0.01 C22.64 0.01 27.62 0.02 32.61 0.03 C37.81 0.04 43.02 0.03 48.22 0.03 C56.96 0.03 65.7 0.04 74.44 0.06 C84.56 0.07 94.68 0.08 104.8 0.08 C114.52 0.08 124.24 0.08 133.96 0.09 C138.1 0.09 142.24 0.1 146.39 0.1 C151.26 0.1 156.14 0.1 161.01 0.11 C162.81 0.12 164.6 0.12 166.39 0.12 C168.83 0.12 171.27 0.12 173.71 0.13 C174.43 0.13 175.15 0.13 175.89 0.12 C180.76 0.15 180.76 0.15 181.88 1.26 C181.99 4.34 182.04 7.4 182.05 10.48 C182.05 11.4 182.05 12.33 182.06 13.28 C182.06 15.25 182.06 17.21 182.06 19.17 C182.07 22.18 182.08 25.19 182.1 28.21 C182.11 30.11 182.11 32.01 182.11 33.92 C182.12 34.82 182.12 35.73 182.13 36.66 C182.13 37.5 182.12 38.33 182.12 39.2 C182.12 39.93 182.12 40.67 182.13 41.43 C181.88 43.26 181.88 43.26 179.88 45.26 C157.11 45.26 134.34 45.26 110.88 45.26 C110.88 107.96 110.88 170.66 110.88 235.26 C108.57 236.42 107.27 236.38 104.7 236.38 C103.41 236.38 103.41 236.38 102.1 236.38 C100.7 236.37 100.7 236.37 99.28 236.36 C98.33 236.36 97.37 236.36 96.39 236.36 C93.35 236.35 90.3 236.34 87.25 236.33 C85.19 236.32 83.13 236.32 81.07 236.31 C76 236.3 70.94 236.28 65.88 236.26 C63.9 232.13 63.63 228.79 63.63 224.23 C63.63 223.53 63.63 222.83 63.62 222.11 C63.62 219.79 63.63 217.46 63.64 215.13 C63.63 213.46 63.63 211.78 63.63 210.11 C63.62 205.57 63.63 201.03 63.64 196.49 C63.65 191.72 63.65 186.96 63.65 182.19 C63.65 174.19 63.66 166.18 63.67 158.17 C63.69 148.94 63.69 139.71 63.69 130.48 C63.69 120.62 63.7 110.77 63.71 100.92 C63.71 98.09 63.71 95.27 63.71 92.44 C63.71 87.98 63.72 83.52 63.73 79.06 C63.73 77.43 63.73 75.8 63.73 74.17 C63.73 64.48 64.04 54.92 64.88 45.26 C63.91 45.27 62.94 45.27 61.95 45.28 C53.83 45.32 45.72 45.35 37.6 45.37 C33.38 45.38 29.16 45.39 24.94 45.41 C20.86 45.44 16.79 45.45 12.72 45.45 C11.17 45.46 9.61 45.46 8.05 45.47 C5.88 45.49 3.71 45.49 1.53 45.49 C0.29 45.49 -0.95 45.5 -2.22 45.5 C-5.12 45.26 -5.12 45.26 -7.12 43.26 C-7.32 40.2 -7.4 37.23 -7.39 34.17 C-7.39 33.27 -7.39 32.36 -7.39 31.43 C-7.39 29.52 -7.39 27.61 -7.38 25.7 C-7.37 22.77 -7.38 19.85 -7.4 16.92 C-7.39 15.06 -7.39 13.21 -7.39 11.36 C-7.39 10.48 -7.4 9.6 -7.4 8.69 C-7.35 2.06 -6.9 0.05 0 0 Z M-5.12 2.26 C-5.12 15.79 -5.12 29.32 -5.12 43.26 C18.31 43.26 41.74 43.26 65.88 43.26 C65.87 51.93 65.87 51.93 65.86 60.78 C65.85 79.83 65.83 98.87 65.83 117.92 C65.82 129.48 65.81 141.03 65.8 152.58 C65.79 162.65 65.79 172.72 65.78 182.78 C65.78 188.12 65.78 193.45 65.77 198.78 C65.77 203.8 65.76 208.81 65.77 213.83 C65.76 215.67 65.76 217.52 65.76 219.36 C65.75 221.87 65.76 224.38 65.76 226.89 C65.76 227.63 65.75 228.37 65.75 229.13 C65.46 232.48 65.46 232.48 66.88 235.26 C69.88 235.38 72.87 235.43 75.87 235.43 C77.23 235.44 77.23 235.44 78.61 235.44 C80.53 235.45 82.45 235.45 84.36 235.45 C87.3 235.45 90.24 235.47 93.18 235.49 C95.03 235.49 96.89 235.49 98.75 235.49 C99.63 235.5 100.52 235.51 101.43 235.52 C106.14 235.73 106.14 235.73 109.88 233.26 C110.07 230.74 110.14 228.33 110.12 225.81 C110.12 224.64 110.12 224.64 110.12 223.45 C110.13 220.83 110.12 218.21 110.11 215.59 C110.1 213.72 110.11 211.85 110.11 209.98 C110.11 204.88 110.1 199.79 110.08 194.69 C110.07 189.37 110.07 184.05 110.07 178.73 C110.06 168.65 110.04 158.58 110.02 148.5 C110 137.02 109.99 125.55 109.98 114.08 C109.96 90.47 109.92 66.87 109.88 43.26 C133.31 43.26 156.74 43.26 180.88 43.26 C180.9 36.68 180.92 30.1 180.94 23.33 C180.95 21.25 180.96 19.17 180.97 17.02 C180.97 15.39 180.97 13.75 180.98 12.11 C180.98 11.25 180.99 10.39 180.99 9.51 C180.99 7.43 180.94 5.34 180.88 3.26 C179.2 1.59 177.15 2.14 174.91 2.13 C174.19 2.14 173.47 2.14 172.73 2.14 C171.98 2.14 171.22 2.14 170.44 2.14 C167.89 2.14 165.34 2.14 162.78 2.15 C160.96 2.15 159.14 2.15 157.31 2.15 C152.35 2.15 147.38 2.15 142.42 2.16 C137.24 2.17 132.06 2.17 126.87 2.17 C117.05 2.17 107.23 2.18 97.41 2.19 C86.23 2.2 75.06 2.21 63.88 2.21 C40.88 2.22 17.88 2.24 -5.12 2.26 Z " fill="#F2F7FA" transform="translate(96.12169986963272,177.7371752858162)"/>
<path d="M0 0 C0.77 -0 1.54 -0 2.33 -0.01 C4.9 -0.01 7.46 0 10.03 0.01 C11.88 0.01 13.72 0.01 15.56 0.01 C20.56 0.01 25.57 0.02 30.57 0.04 C35.79 0.05 41.02 0.05 46.25 0.05 C56.15 0.06 66.05 0.08 75.95 0.1 C87.22 0.12 98.49 0.13 109.75 0.14 C132.94 0.16 156.12 0.2 179.3 0.24 C176.87 2.67 175.62 2.47 172.32 2.48 C171.27 2.47 171.27 2.47 170.2 2.46 C169.09 2.46 169.09 2.46 167.96 2.46 C165.47 2.46 162.98 2.44 160.49 2.42 C158.71 2.41 156.93 2.41 155.15 2.41 C151.31 2.4 147.47 2.38 143.63 2.36 C137.55 2.33 131.47 2.31 125.4 2.3 C110.3 2.27 95.2 2.21 80.1 2.15 C68.38 2.1 56.66 2.06 44.93 2.04 C38.9 2.03 32.86 2 26.82 1.97 C23.06 1.95 19.3 1.94 15.53 1.94 C13.79 1.93 12.05 1.92 10.31 1.91 C7.92 1.89 5.54 1.89 3.16 1.89 C2.47 1.88 1.79 1.87 1.09 1.86 C-4.84 1.91 -10.26 3.28 -14.94 7.04 C-15.48 7.68 -16.02 8.33 -16.58 8.99 C-17.41 9.94 -17.41 9.94 -18.26 10.91 C-21.47 16.1 -21.95 21.56 -21.95 27.54 C-21.96 28.6 -21.96 28.6 -21.96 29.67 C-21.97 32.03 -21.96 34.38 -21.95 36.73 C-21.96 38.44 -21.96 40.15 -21.96 41.85 C-21.97 46.54 -21.97 51.22 -21.96 55.91 C-21.96 60.96 -21.96 66.02 -21.97 71.07 C-21.98 80.97 -21.98 90.87 -21.97 100.77 C-21.97 108.82 -21.97 116.87 -21.97 124.92 C-21.97 126.06 -21.97 127.21 -21.97 128.39 C-21.97 130.72 -21.97 133.04 -21.97 135.37 C-21.98 157.19 -21.97 179.01 -21.96 200.83 C-21.95 219.55 -21.95 238.27 -21.96 256.99 C-21.97 278.73 -21.98 300.47 -21.97 322.2 C-21.97 324.52 -21.97 326.84 -21.97 329.16 C-21.97 330.87 -21.97 330.87 -21.97 332.62 C-21.97 340.65 -21.97 348.69 -21.97 356.73 C-21.98 366.52 -21.98 376.32 -21.97 386.12 C-21.96 391.11 -21.96 396.11 -21.97 401.11 C-21.97 405.69 -21.97 410.26 -21.96 414.84 C-21.96 416.5 -21.96 418.15 -21.96 419.8 C-22.03 444.57 -13.66 460.53 3.61 477.92 C5.47 479.77 7.33 481.62 9.19 483.46 C10.51 484.77 11.82 486.09 13.14 487.4 C15.87 490.13 18.61 492.86 21.36 495.58 C24.86 499.06 28.36 502.54 31.86 506.03 C35.21 509.39 38.58 512.74 41.94 516.08 C42.57 516.72 43.21 517.35 43.86 518 C45.66 519.79 47.46 521.58 49.27 523.37 C49.79 523.89 50.32 524.42 50.86 524.96 C53.34 527.41 55.86 529.75 58.56 531.96 C60.93 533.93 62.6 535.69 64.3 538.24 C63.97 538.9 63.64 539.56 63.3 540.24 C54.06 531.09 44.82 521.93 35.6 512.75 C31.32 508.49 27.03 504.23 22.74 499.98 C18.59 495.87 14.45 491.76 10.31 487.63 C8.74 486.07 7.16 484.51 5.59 482.95 C-11.97 465.63 -24.8 449.08 -24.97 423.41 C-24.98 421.07 -24.97 418.73 -24.97 416.39 C-24.97 414.68 -24.98 412.97 -24.98 411.26 C-24.99 406.58 -24.99 401.9 -24.99 397.23 C-24.99 392.17 -25 387.12 -25.01 382.07 C-25.03 372.18 -25.03 362.29 -25.03 352.4 C-25.04 344.36 -25.04 336.32 -25.05 328.28 C-25.06 305.48 -25.07 282.68 -25.07 259.88 C-25.07 258.65 -25.07 257.42 -25.07 256.16 C-25.07 254.93 -25.07 253.7 -25.07 252.43 C-25.07 232.49 -25.09 212.55 -25.12 192.6 C-25.15 172.12 -25.16 151.64 -25.16 131.15 C-25.16 119.66 -25.16 108.16 -25.18 96.66 C-25.2 86.88 -25.21 77.09 -25.19 67.31 C-25.19 62.31 -25.19 57.32 -25.2 52.33 C-25.22 47.76 -25.22 43.19 -25.2 38.62 C-25.2 36.96 -25.2 35.31 -25.21 33.66 C-25.27 23.89 -25.16 14.77 -18.74 6.8 C-18.08 6.29 -17.43 5.77 -16.76 5.24 C-16.11 4.7 -15.47 4.17 -14.8 3.62 C-9.97 0.45 -5.67 -0.05 0 0 Z " fill="#3378C6" transform="translate(32.70051574707031,4.759490966796875)"/>
<path d="M0 0 C0.66 0.33 1.32 0.66 2 1 C2.09 49.48 2.16 97.95 2.2 146.43 C2.21 152.16 2.21 157.88 2.22 163.6 C2.22 164.74 2.22 165.88 2.22 167.06 C2.24 185.5 2.27 203.95 2.31 222.4 C2.35 241.33 2.37 260.26 2.38 279.19 C2.38 290.87 2.4 302.56 2.43 314.24 C2.45 322.25 2.46 330.26 2.45 338.27 C2.45 342.89 2.46 347.51 2.48 352.13 C2.5 356.37 2.5 360.6 2.48 364.84 C2.48 366.36 2.49 367.89 2.5 369.42 C2.58 380.41 1.76 391.28 -6.28 399.58 C-14.06 406 -23.13 405.56 -32.7 405.48 C-34.29 405.48 -35.89 405.49 -37.49 405.49 C-41.86 405.5 -46.22 405.48 -50.59 405.46 C-55.31 405.45 -60.03 405.45 -64.75 405.46 C-72.92 405.46 -81.08 405.45 -89.25 405.42 C-101.06 405.39 -112.87 405.38 -124.68 405.37 C-143.84 405.37 -163.01 405.34 -182.17 405.3 C-200.78 405.27 -219.39 405.24 -238 405.22 C-239.15 405.22 -240.3 405.22 -241.48 405.22 C-247.24 405.21 -253 405.21 -258.75 405.2 C-306.5 405.16 -354.25 405.09 -402 405 C-402 404.67 -402 404.34 -402 404 C-401.39 404 -400.77 404 -400.14 403.99 C-363.26 403.89 -326.39 403.78 -289.52 403.67 C-285.04 403.66 -280.56 403.64 -276.08 403.63 C-275.19 403.62 -274.3 403.62 -273.38 403.62 C-260.91 403.58 -248.44 403.54 -235.97 403.51 C-189.65 403.38 -143.32 403.23 -97 403 C-95.74 402.99 -94.47 402.99 -93.17 402.98 C-79.66 402.91 -66.16 402.83 -52.66 402.7 C-49.34 402.67 -46.01 402.64 -42.69 402.62 C-39 402.6 -35.31 402.56 -31.62 402.51 C-29.74 402.49 -27.85 402.49 -25.97 402.48 C-18.39 402.35 -13.21 401.7 -7.25 396.69 C-2.72 391.28 -0.87 386.05 -0.88 379.09 C-0.88 377.6 -0.88 377.6 -0.88 376.09 C-0.88 375 -0.88 373.91 -0.89 372.78 C-0.89 371.62 -0.89 370.47 -0.89 369.27 C-0.89 366.05 -0.89 362.83 -0.9 359.6 C-0.9 356.12 -0.91 352.64 -0.91 349.16 C-0.91 343.12 -0.92 337.07 -0.92 331.02 C-0.94 322.18 -0.94 313.34 -0.95 304.5 C-0.95 290.03 -0.97 275.57 -0.98 261.1 C-0.98 260.24 -0.98 259.37 -0.98 258.48 C-0.99 250.64 -1 242.8 -1.01 234.95 C-1.03 210.6 -1.05 186.25 -1.06 161.91 C-1.06 159.45 -1.06 156.98 -1.06 154.52 C-1.09 103.01 -0.88 51.51 0 0 Z " fill="#57BC5C" transform="translate(573,200)"/>
<path d="M0 0 C5.45 1.93 9.35 5.61 12.15 10.62 C14.06 15.97 13.96 21.72 12.37 27.15 C9.98 32.07 5.92 34.96 1 37 C-5.4 38.62 -10.17 38.36 -16 35 C-20.91 31.6 -23.25 28.73 -25 23 C-25.8 17.34 -24.77 13.06 -22 8 C-15.55 0.53 -9.66 -1.31 0 0 Z " fill="#21A07D" transform="translate(303,282)"/>
<path d="M0 0 C5.33 3.75 9.57 8.37 10.75 14.94 C10.73 21.3 9.72 26.9 5.12 31.6 C0.05 35.92 -4.61 37.36 -11.25 36.94 C-17.54 35.94 -20.92 32.66 -24.9 27.88 C-28.05 23.36 -27.81 18.22 -27.25 12.94 C-25.25 6.57 -21.83 2.98 -16.06 -0.31 C-10.63 -1.76 -5.35 -1.75 0 0 Z " fill="#1C9399" transform="translate(260.25,283.0625)"/>
<path d="M0 0 C6.51 -0.04 13.01 -0.06 19.52 -0.08 C24.28 -0.1 29.04 -0.13 33.81 -0.17 C37.25 -0.2 40.68 -0.2 44.12 -0.21 C45.28 -0.22 46.43 -0.24 47.62 -0.25 C63.7 -0.24 79.44 4.63 91.14 16.1 C91.14 16.76 91.14 17.42 91.14 18.1 C91.71 18.34 92.28 18.59 92.87 18.84 C95.51 20.3 97.29 22 99.42 24.14 C100.27 24.98 101.11 25.83 101.99 26.7 C102.91 27.63 103.83 28.56 104.78 29.52 C105.77 30.5 106.76 31.49 107.74 32.48 C110.43 35.16 113.1 37.84 115.77 40.53 C118.57 43.34 121.38 46.15 124.18 48.96 C129.5 54.28 134.81 59.61 140.13 64.94 C146.15 70.99 152.18 77.03 158.21 83.07 C168.53 93.41 178.84 103.75 189.15 114.09 C193.14 118.09 197.13 122.1 201.14 126.1 C209.8 134.76 218.47 143.43 227.14 152.1 C226.81 153.09 226.48 154.08 226.14 155.1 C222.96 151.98 219.8 148.85 216.64 145.72 C215.73 144.83 214.82 143.94 213.89 143.03 C213.03 142.18 212.18 141.33 211.29 140.45 C210.1 139.27 210.1 139.27 208.88 138.07 C207.14 136.1 207.14 136.1 207.14 134.1 C206.57 133.86 206.01 133.62 205.43 133.38 C202.62 131.81 200.66 129.88 198.39 127.6 C197.59 126.8 196.79 126.01 195.96 125.19 C194.14 123.1 194.14 123.1 194.14 121.1 C193.15 120.77 192.16 120.44 191.14 120.1 C191.14 119.44 191.14 118.78 191.14 118.1 C190.57 117.86 190 117.61 189.42 117.37 C186.68 115.84 184.83 114.03 182.61 111.8 C181.28 110.47 181.28 110.47 179.92 109.11 C178.96 108.14 178 107.17 177.04 106.2 C176.05 105.2 175.06 104.21 174.06 103.21 C171.45 100.59 168.84 97.96 166.23 95.33 C163.59 92.67 160.94 90.01 158.29 87.35 C153.62 82.66 148.96 77.97 144.3 73.27 C142.84 71.8 141.36 70.36 139.85 68.94 C138.14 67.1 138.14 67.1 138.14 65.1 C137.15 64.77 136.16 64.44 135.14 64.1 C133.79 62.44 132.46 60.77 131.14 59.1 C129.49 57.74 127.82 56.41 126.14 55.1 C124.45 53.45 122.79 51.78 121.14 50.1 C120.57 49.52 120 48.94 119.42 48.35 C118.12 47.02 116.82 45.7 115.52 44.37 C112.49 41.29 109.45 38.22 106.41 35.15 C104.82 33.54 103.23 31.92 101.64 30.3 C82.22 10.47 82.22 10.47 56.1 2.97 C55.02 2.97 53.94 2.96 52.83 2.96 C51.58 2.96 50.32 2.95 49.03 2.95 C47.65 2.95 46.26 2.95 44.88 2.95 C43.4 2.95 41.92 2.94 40.45 2.94 C36.4 2.93 32.34 2.92 28.29 2.92 C23.92 2.92 19.55 2.91 15.17 2.9 C4.62 2.88 -5.94 2.87 -16.49 2.86 C-21.46 2.86 -26.43 2.85 -31.4 2.85 C-47.93 2.83 -64.45 2.81 -80.97 2.81 C-85.26 2.81 -89.55 2.8 -93.83 2.8 C-95.43 2.8 -95.43 2.8 -97.06 2.8 C-114.33 2.79 -131.59 2.77 -148.86 2.73 C-166.59 2.7 -184.31 2.68 -202.04 2.68 C-211.99 2.68 -221.95 2.67 -231.9 2.64 C-240.37 2.62 -248.85 2.61 -257.32 2.62 C-261.64 2.63 -265.97 2.63 -270.29 2.61 C-274.25 2.59 -278.21 2.59 -282.17 2.61 C-283.6 2.61 -285.03 2.6 -286.46 2.59 C-294.34 2.53 -300.19 2.68 -306.86 7.1 C-308.76 9 -310.26 10.92 -311.86 13.1 C-312.52 13.76 -313.18 14.42 -313.86 15.1 C-313.79 11.99 -313.49 9.82 -311.41 7.43 C-304.59 1.43 -298.99 0.8 -290.11 0.82 C-288.47 0.81 -288.47 0.81 -286.79 0.8 C-283.1 0.78 -279.41 0.78 -275.72 0.78 C-273.08 0.77 -270.43 0.76 -267.79 0.75 C-261.33 0.72 -254.87 0.71 -248.41 0.7 C-240.81 0.68 -233.21 0.66 -225.61 0.63 C-211.96 0.59 -198.31 0.55 -184.66 0.52 C-171.59 0.49 -158.52 0.45 -145.45 0.41 C-144.66 0.41 -143.86 0.41 -143.04 0.41 C-139.05 0.39 -135.05 0.38 -131.05 0.37 C-110.78 0.31 -90.51 0.25 -70.24 0.21 C-69.49 0.2 -68.74 0.2 -67.97 0.2 C-61.35 0.19 -54.72 0.17 -48.1 0.16 C-32.07 0.13 -16.03 0.09 0 0 Z " fill="#EAF3F4" transform="translate(323.8639678955078,2.9031200408935547)"/>
<path d="M0 0 C2 3 2 3 2.75 6.25 C4.12 10.36 5.82 12.45 8.76 15.52 C10 17 10 17 10 19 C10.8 19.31 10.8 19.31 11.61 19.62 C15 21.57 17.56 24.28 20.3 27.03 C20.89 27.62 21.48 28.21 22.1 28.82 C23.35 30.07 24.59 31.32 25.84 32.58 C27.75 34.5 29.67 36.41 31.6 38.32 C32.81 39.54 34.02 40.75 35.23 41.97 C35.81 42.54 36.39 43.12 36.99 43.71 C41 47.77 41 47.77 41 50 C41.6 50.27 42.2 50.54 42.81 50.81 C45 52 46.41 53.1 48 55 C48 55.66 48 56.32 48 57 C48.66 57 49.32 57 50 57 C50 57.66 50 58.32 50 59 C50.64 59.27 51.28 59.54 51.94 59.81 C54 61 54 61 55 64 C55.66 64 56.32 64 57 64 C57 64.66 57 65.32 57 66 C57.66 66 58.32 66 59 66 C60.73 67.63 62.36 69.29 64 71 C65.38 72.38 66.76 73.75 68.15 75.12 C72.45 79.38 76.75 83.66 81.04 87.93 C82.9 89.78 84.75 91.62 86.61 93.46 C89.29 96.12 91.97 98.78 94.64 101.45 C95.9 102.69 95.9 102.69 97.18 103.96 C97.95 104.72 98.71 105.48 99.5 106.27 C100.52 107.28 100.52 107.28 101.55 108.31 C103 110 103 110 103 112 C103.9 112.4 103.9 112.4 104.81 112.81 C107 114 108.41 115.1 110 117 C110 117.66 110 118.32 110 119 C110.66 119 111.32 119 112 119 C112.52 119.68 113.03 120.36 113.56 121.06 C118.61 127.14 126 133.38 134.04 134.38 C135.67 134.38 135.67 134.38 137.33 134.38 C138.59 134.39 139.85 134.4 141.14 134.41 C142.53 134.41 143.92 134.4 145.31 134.4 C146.79 134.4 148.28 134.41 149.76 134.42 C153.83 134.44 157.89 134.44 161.96 134.43 C166.35 134.43 170.74 134.45 175.13 134.46 C182.73 134.49 190.33 134.5 197.93 134.5 C208.93 134.51 219.92 134.53 230.91 134.56 C248.74 134.6 266.57 134.63 284.41 134.65 C301.73 134.67 319.05 134.7 336.38 134.74 C337.98 134.74 337.98 134.74 339.61 134.74 C344.97 134.76 350.32 134.77 355.68 134.78 C400.12 134.87 444.56 134.94 489 135 C489 135.33 489 135.66 489 136 C443.24 136.07 397.48 136.12 351.72 136.15 C346.32 136.16 340.92 136.16 335.52 136.16 C334.45 136.17 333.37 136.17 332.26 136.17 C314.85 136.18 297.43 136.2 280.01 136.23 C262.15 136.26 244.28 136.28 226.42 136.28 C215.39 136.29 204.36 136.3 193.33 136.32 C185.78 136.34 178.22 136.34 170.66 136.34 C166.3 136.34 161.93 136.34 157.57 136.36 C153.58 136.37 149.58 136.37 145.59 136.36 C144.14 136.36 142.7 136.37 141.25 136.37 C139.29 136.39 137.32 136.38 135.36 136.37 C133.72 136.37 133.72 136.37 132.05 136.37 C119.89 134.89 110.07 121.22 101.91 113.05 C100.84 111.98 99.77 110.92 98.7 109.85 C95.82 106.98 92.95 104.11 90.07 101.24 C88.28 99.44 86.48 97.65 84.68 95.85 C78.4 89.58 72.12 83.3 65.84 77.03 C60 71.18 54.15 65.35 48.3 59.51 C43.26 54.49 38.23 49.46 33.2 44.43 C30.2 41.43 27.2 38.43 24.2 35.44 C21.38 32.63 18.56 29.82 15.75 27 C14.72 25.97 13.69 24.94 12.66 23.91 C11.24 22.5 9.84 21.09 8.43 19.68 C7.64 18.89 6.86 18.1 6.04 17.29 C2.48 13.29 0.67 10.04 0.31 4.69 C0.25 3.8 0.18 2.92 0.11 2.01 C0.08 1.35 0.04 0.68 0 0 Z " fill="#E7F2F2" transform="translate(47,431)"/>
<path d="M0 0 C2.04 0.03 4.09 0.05 6.13 0.07 C9 0.1 11.87 0.15 14.73 0.21 C15.57 0.22 16.41 0.22 17.27 0.23 C33.63 0.7 44.7 16.26 55.49 27.04 C56.8 28.35 58.11 29.65 59.42 30.96 C62.96 34.48 66.49 38.01 70.02 41.53 C72.23 43.74 74.44 45.95 76.65 48.15 C83.58 55.07 90.51 61.99 97.44 68.92 C105.41 76.88 113.39 84.85 121.38 92.8 C127.57 98.97 133.75 105.15 139.94 111.33 C143.62 115.01 147.31 118.69 151 122.37 C154.47 125.82 157.93 129.28 161.39 132.75 C162.66 134.01 163.92 135.28 165.2 136.54 C181.85 153.07 181.85 153.07 184.14 163.86 C181.14 162.86 181.14 162.86 180.29 161.18 C180.04 160.45 179.78 159.73 179.52 158.98 C175.22 148.65 166.24 140.65 158.4 132.9 C156.94 131.47 155.5 130.03 154.05 128.58 C149.57 124.12 145.09 119.8 140.14 115.86 C138.27 114.17 138.27 114.17 137.14 112.86 C137.14 112.2 137.14 111.54 137.14 110.86 C136.58 110.62 136.02 110.38 135.44 110.14 C132.62 108.56 130.69 106.64 128.41 104.35 C127.5 103.45 126.6 102.54 125.67 101.61 C124.97 100.9 124.97 100.9 124.26 100.18 C122.85 98.75 121.44 97.34 120.03 95.93 C115.38 91.25 110.87 86.51 106.57 81.51 C104.89 79.57 103.15 77.73 101.33 75.92 C100.77 75.36 100.21 74.79 99.63 74.21 C98.17 72.76 98.17 72.76 96.14 71.86 C96.14 71.2 96.14 70.54 96.14 69.86 C94.82 69.2 93.5 68.54 92.14 67.86 C92.14 67.2 92.14 66.54 92.14 65.86 C91.15 65.53 90.16 65.2 89.14 64.86 C89.14 64.2 89.14 63.54 89.14 62.86 C88.59 62.65 88.03 62.45 87.46 62.23 C84.89 60.71 83.45 58.87 81.61 56.55 C80.02 54.72 78.33 53.21 76.48 51.65 C72.16 47.92 68.11 43.97 64.08 39.92 C63.41 39.26 62.75 38.59 62.06 37.91 C58.08 33.92 54.3 29.83 50.65 25.54 C48.69 23.35 46.48 21.64 44.14 19.86 C41.9 17.68 39.7 15.47 37.59 13.16 C32.33 7.58 26.44 2.82 18.53 2.22 C16.88 2.19 15.23 2.18 13.59 2.2 C12.68 2.19 11.77 2.18 10.83 2.17 C7.86 2.14 4.89 2.15 1.92 2.15 C-0.15 2.14 -2.22 2.12 -4.29 2.11 C-9.72 2.07 -15.15 2.06 -20.58 2.05 C-26.14 2.04 -31.69 2.01 -37.24 1.97 C-48.11 1.91 -58.98 1.87 -69.86 1.86 C-69.86 1.53 -69.86 1.2 -69.86 0.86 C-46.57 0.16 -23.29 -0.37 0 0 Z " fill="#3BB055" transform="translate(354.8554382324219,40.141143798828125)"/>
<path d="M0 0 C21.21 -0.04 21.21 -0.04 30.42 -0.05 C36.64 -0.05 42.86 -0.06 49.09 -0.08 C93.19 -0.17 93.19 -0.17 114 1 C114 1.33 114 1.66 114 2 C100.14 2.15 86.27 2.3 72.41 2.44 C65.97 2.51 59.53 2.58 53.09 2.65 C46.88 2.72 40.67 2.78 34.46 2.84 C32.09 2.87 29.72 2.89 27.34 2.92 C24.03 2.96 20.71 2.99 17.39 3.02 C16.41 3.03 15.42 3.05 14.41 3.06 C13.51 3.07 12.6 3.08 11.66 3.08 C10.88 3.09 10.09 3.1 9.29 3.11 C7 3 7 3 2 2 C2 14.21 2 26.42 2 39 C24.44 39 46.88 39 70 39 C70.33 39.66 70.66 40.32 71 41 C47.57 41 24.14 41 0 41 C0 27.47 0 13.94 0 0 Z " fill="#0974B4" transform="translate(91,180)"/>
<path d="M0 0 C3.43 1.48 5.65 3.41 8.28 6.04 C9.55 7.31 9.55 7.31 10.85 8.6 C11.77 9.53 12.7 10.46 13.65 11.42 C14.63 12.41 15.62 13.39 16.61 14.38 C19.29 17.06 21.96 19.75 24.64 22.43 C27.44 25.25 30.24 28.05 33.05 30.86 C38.37 36.19 43.68 41.51 48.99 46.84 C55.01 52.89 61.05 58.94 67.08 64.98 C77.39 75.31 87.71 85.65 98.01 95.99 C102.01 100 106 104 110 108 C118.67 116.67 127.33 125.33 136 134 C135.67 134.99 135.34 135.98 135 137 C131.83 133.88 128.66 130.76 125.5 127.62 C124.59 126.74 123.69 125.85 122.75 124.93 C121.9 124.08 121.04 123.23 120.16 122.35 C119.36 121.57 118.56 120.78 117.74 119.97 C116 118 116 118 116 116 C115.44 115.76 114.88 115.53 114.3 115.28 C111.48 113.71 109.52 111.79 107.25 109.5 C106.05 108.31 106.05 108.31 104.83 107.09 C103 105 103 105 103 103 C101.51 102.5 101.51 102.5 100 102 C100 101.34 100 100.68 100 100 C99.43 99.76 98.87 99.52 98.28 99.27 C95.54 97.75 93.69 95.93 91.48 93.71 C90.59 92.82 89.7 91.93 88.79 91.02 C87.83 90.04 86.87 89.07 85.91 88.1 C84.91 87.1 83.92 86.11 82.93 85.11 C80.31 82.49 77.7 79.86 75.1 77.24 C72.45 74.57 69.8 71.91 67.15 69.25 C62.48 64.56 57.82 59.87 53.16 55.18 C51.7 53.71 50.22 52.26 48.72 50.84 C47 49 47 49 47 47 C46.01 46.67 45.02 46.34 44 46 C42.66 44.34 41.32 42.67 40 41 C38.35 39.65 36.68 38.31 35 37 C33.32 35.35 31.66 33.68 30 32 C28.89 30.9 27.79 29.81 26.68 28.71 C23.38 25.45 20.09 22.18 16.81 18.92 C15.39 17.51 13.97 16.1 12.54 14.69 C10.49 12.66 8.44 10.62 6.39 8.58 C5.75 7.95 5.11 7.32 4.45 6.67 C2.93 5.15 1.46 3.58 0 2 C0 1.34 0 0.68 0 0 Z " fill="#DEF1E2" transform="translate(415,21)"/>
<path d="M0 0 C5.58 -0.12 8.01 1.56 12.12 5.31 C13.34 6.48 13.34 6.48 14.57 7.68 C16.94 9.95 19.43 11.96 22 14 C23.69 15.65 25.35 17.31 27 19 C27.76 19.72 28.53 20.44 29.31 21.19 C31 23 31 23 31 25 C31.99 25.33 32.98 25.66 34 26 C35.44 27.46 35.44 27.46 37 29.38 C43.49 37.02 50.67 43.95 58.29 50.45 C59.93 51.94 61.3 53.46 62.69 55.19 C64.94 57.92 67.21 59.85 70 62 C72.31 64.13 72.31 64.13 74 66 C74 66.66 74 67.32 74 68 C74.56 68.24 75.12 68.47 75.7 68.72 C78.52 70.29 80.48 72.21 82.75 74.5 C83.95 75.69 83.95 75.69 85.17 76.91 C87 79 87 79 87 81 C88.49 81.5 88.49 81.5 90 82 C91.53 83.55 91.53 83.55 93.17 85.54 C97.01 90.06 101.11 94.25 105.31 98.44 C106.03 99.16 106.74 99.87 107.48 100.62 C108.16 101.3 108.85 101.98 109.55 102.68 C110.47 103.6 110.47 103.6 111.42 104.54 C112.95 106.09 112.95 106.09 115 107 C115 107.66 115 108.32 115 109 C116.49 109.5 116.49 109.5 118 110 C118.56 110.7 119.11 111.4 119.69 112.12 C121.59 114.49 123.27 116.17 125.55 118.1 C130.41 122.3 134.96 126.77 139.5 131.31 C140.3 132.1 141.11 132.89 141.93 133.71 C157.47 149.21 157.47 149.21 159 158 C156 156 156 156 154.62 153.22 C152.85 149.7 150.83 147.33 148.13 144.46 C147.41 143.69 147.41 143.69 146.68 142.9 C140.85 136.71 134.86 130.7 128.85 124.69 C127.57 123.41 126.29 122.12 125.01 120.84 C121.58 117.39 118.14 113.94 114.7 110.5 C112.54 108.34 110.39 106.18 108.23 104.02 C101.48 97.25 94.72 90.48 87.96 83.72 C80.18 75.94 72.41 68.15 64.64 60.35 C58.62 54.31 52.59 48.26 46.55 42.23 C42.95 38.63 39.36 35.03 35.77 31.42 C32.4 28.04 29.02 24.66 25.64 21.28 C24.41 20.05 23.17 18.81 21.94 17.57 C16.03 11.61 10.44 6.06 3 2 C2.01 1.34 1.02 0.68 0 0 Z " fill="#E6F4E9" transform="translate(377,44)"/>
<path d="M0 0 C23.25 -0.02 46.5 -0.04 69.76 -0.05 C80.55 -0.06 91.35 -0.06 102.15 -0.08 C111.55 -0.09 120.96 -0.09 130.37 -0.09 C135.36 -0.1 140.34 -0.1 145.32 -0.11 C150.01 -0.11 154.7 -0.11 159.39 -0.11 C161.11 -0.11 162.83 -0.12 164.55 -0.12 C166.9 -0.12 169.25 -0.12 171.6 -0.12 C172.92 -0.12 174.23 -0.12 175.59 -0.12 C178.53 -0.02 181.14 0.31 184 1 C184 1.33 184 1.66 184 2 C168.14 2.93 152.33 3.16 136.44 3.12 C134.48 3.12 132.53 3.12 130.57 3.12 C87.05 3.08 43.52 2.49 0 2 C0 1.34 0 0.68 0 0 Z " fill="#109970" transform="translate(230,567)"/>
<path d="M0 0 C0.33 0 0.66 0 1 0 C1.22 1.03 1.44 2.05 1.66 3.11 C6.58 25.07 20.28 38.58 35.8 53.99 C37.32 55.51 38.84 57.03 40.36 58.55 C44.34 62.52 48.33 66.49 52.31 70.45 C56.37 74.49 60.42 78.53 64.47 82.57 C71.01 89.09 77.55 95.61 84.1 102.12 C86.68 104.69 89.25 107.25 91.82 109.83 C93.5 111.5 95.18 113.13 96.94 114.72 C97.44 115.18 97.94 115.63 98.46 116.11 C98.97 116.57 99.48 117.03 100 117.5 C101.02 118.43 102.04 119.35 103.06 120.28 C103.51 120.68 103.95 121.09 104.41 121.5 C106.66 123.62 108.82 125.81 111 128 C111.97 128.97 112.95 129.95 113.92 130.92 C122.28 139.28 130.64 147.64 139 156 C130.45 154.48 123.4 144.54 117.54 138.66 C116.63 137.75 115.72 136.84 114.78 135.9 C112.31 133.43 109.84 130.95 107.37 128.47 C104.78 125.87 102.18 123.27 99.58 120.67 C94.66 115.75 89.75 110.83 84.84 105.91 C79.27 100.33 73.69 94.74 68.11 89.16 C58.57 79.61 49.03 70.06 39.5 60.51 C37.98 58.98 36.45 57.46 34.93 55.93 C33.76 54.76 32.59 53.59 31.43 52.41 C29.4 50.36 27.38 48.5 25.12 46.69 C13.82 37.36 2.28 22.75 0 8 C-0.12 5.32 -0.05 2.68 0 0 Z " fill="#F3F7FB" transform="translate(8,438)"/>
<path d="M0 0 C1 3 1 3 0.11 5.28 C-0.56 6.59 -0.56 6.59 -1.25 7.94 C-9.14 24.77 -9.01 42.6 -3 60 C2.3 72.95 11.87 82.35 24 89 C24.89 89.51 25.78 90.02 26.7 90.55 C34.87 94.96 43.49 97.54 52.34 100.19 C57.04 101.62 61.7 103.13 66.38 104.62 C72.26 106.51 78.15 108.35 84.06 110.12 C90.5 112.08 96.75 114.5 103 117 C103 117.66 103 118.32 103 119 C102.22 118.74 102.22 118.74 101.42 118.47 C95.27 116.41 89.11 114.41 82.94 112.44 C81.87 112.1 80.81 111.75 79.71 111.4 C73.44 109.39 67.16 107.43 60.85 105.54 C24.21 94.47 24.21 94.47 11 83 C9.51 82.01 9.51 82.01 8 81 C8 80.34 8 79.68 8 79 C7.34 79 6.68 79 6 79 C-7.36 63.27 -11.23 46.38 -9.79 26.08 C-8.85 18.37 -5.72 5.72 0 0 Z " fill="#F1F9F5" transform="translate(333,209)"/>
<path d="M0 0 C0.77 -0 1.54 -0 2.33 -0.01 C4.9 -0.01 7.46 0 10.03 0.01 C11.88 0.01 13.72 0.01 15.56 0.01 C20.56 0.01 25.57 0.02 30.57 0.04 C35.79 0.05 41.02 0.05 46.25 0.05 C56.15 0.06 66.05 0.08 75.95 0.1 C87.22 0.12 98.49 0.13 109.75 0.14 C132.94 0.16 156.12 0.2 179.3 0.24 C176.87 2.67 175.62 2.47 172.32 2.48 C171.27 2.47 171.27 2.47 170.2 2.46 C169.09 2.46 169.09 2.46 167.96 2.46 C165.47 2.46 162.98 2.44 160.49 2.42 C158.71 2.41 156.93 2.41 155.15 2.41 C151.31 2.4 147.47 2.38 143.63 2.36 C137.55 2.33 131.47 2.31 125.4 2.3 C110.3 2.27 95.2 2.21 80.1 2.15 C68.38 2.1 56.66 2.06 44.93 2.04 C38.9 2.03 32.86 2 26.82 1.97 C23.06 1.95 19.3 1.94 15.53 1.94 C13.79 1.93 12.05 1.92 10.31 1.91 C7.92 1.89 5.54 1.89 3.16 1.89 C2.47 1.88 1.79 1.87 1.09 1.86 C-4.84 1.91 -10.26 3.28 -14.94 7.04 C-18.55 11.35 -20.66 14.69 -21.7 20.24 C-22.36 19.91 -23.02 19.58 -23.7 19.24 C-23.09 12.87 -20.52 8.67 -15.76 4.49 C-10.55 0.66 -6.37 -0.05 0 0 Z " fill="#2175B4" transform="translate(32.70051574707031,4.759490966796875)"/>
<path d="M0 0 C42.24 0 84.48 0 128 0 C127.67 0.66 127.34 1.32 127 2 C102.85 2.89 78.72 3.19 54.56 3.19 C49.75 3.19 44.95 3.2 40.14 3.22 C36.39 3.23 32.63 3.23 28.87 3.23 C27.1 3.23 25.32 3.23 23.55 3.24 C21.09 3.25 18.63 3.25 16.17 3.24 C15.1 3.25 15.1 3.25 14.01 3.26 C9.02 3.23 4.77 2.35 0 1 C0 0.67 0 0.34 0 0 Z " fill="#30AF43" transform="translate(409,567)"/>
<path d="M0 0 C2.04 0.03 4.09 0.05 6.13 0.07 C9 0.1 11.87 0.15 14.73 0.21 C15.57 0.22 16.41 0.22 17.27 0.23 C35.09 0.74 48.19 19.78 59.77 31.42 C61.36 33.02 62.95 34.62 64.55 36.21 C68.42 40.09 72.28 43.97 76.14 47.86 C75.15 48.85 75.15 48.85 74.14 49.86 C71.29 47.03 68.43 44.19 65.58 41.36 C64.78 40.57 63.98 39.78 63.16 38.96 C58.79 34.61 54.58 30.2 50.6 25.49 C48.66 23.32 46.45 21.62 44.14 19.86 C41.9 17.68 39.7 15.47 37.59 13.16 C32.33 7.58 26.44 2.82 18.53 2.22 C16.88 2.19 15.23 2.18 13.59 2.2 C12.68 2.19 11.77 2.18 10.83 2.17 C7.86 2.14 4.89 2.15 1.92 2.15 C-0.15 2.14 -2.22 2.12 -4.29 2.11 C-9.72 2.07 -15.15 2.06 -20.58 2.05 C-26.14 2.04 -31.69 2.01 -37.24 1.97 C-48.11 1.91 -58.98 1.87 -69.86 1.86 C-69.86 1.53 -69.86 1.2 -69.86 0.86 C-46.57 0.16 -23.29 -0.37 0 0 Z " fill="#27A562" transform="translate(354.8554382324219,40.141143798828125)"/>
<path d="M0 0 C0 13.86 0 27.72 0 42 C-0.33 42 -0.66 42 -1 42 C-1.33 28.8 -1.66 15.6 -2 2 C-62.72 1.67 -123.44 1.34 -186 1 C-186 0.67 -186 0.34 -186 0 C-162.04 -0.15 -138.09 -0.3 -114.13 -0.44 C-103.01 -0.51 -91.89 -0.58 -80.76 -0.65 C-71.07 -0.71 -61.38 -0.77 -51.69 -0.83 C-46.56 -0.85 -41.42 -0.89 -36.29 -0.92 C-31.46 -0.95 -26.63 -0.98 -21.8 -1.01 C-20.03 -1.02 -18.25 -1.03 -16.48 -1.04 C-14.06 -1.06 -11.64 -1.07 -9.23 -1.08 C-8.16 -1.09 -8.16 -1.09 -7.07 -1.1 C-2.23 -1.11 -2.23 -1.11 0 0 Z " fill="#EAF3F6" transform="translate(278,179)"/>
<path d="M0 0 C5.45 1.93 9.35 5.61 12.15 10.62 C14.06 15.97 13.96 21.72 12.37 27.15 C9.98 32.07 5.92 34.96 1 37 C-5.4 38.62 -10.17 38.36 -16 35 C-20.91 31.6 -23.25 28.73 -25 23 C-25.8 17.34 -24.77 13.06 -22 8 C-15.55 0.53 -9.66 -1.31 0 0 Z M-20 8 C-23.38 12.75 -23.73 17.35 -23 23 C-21.24 28 -18.11 31.71 -14 35 C-8.19 36.94 -2.08 37.02 3.44 34.31 C7.2 30.91 10.76 27.61 11.24 22.39 C11.44 13.97 11.44 13.97 7 7 C1.61 2.25 -1.77 1.53 -8.88 1.59 C-13.79 2.24 -16.7 4.4 -20 8 Z " fill="#E7F4F1" transform="translate(303,282)"/>
<path d="M0 0 C0.33 0 0.66 0 1 0 C2.17 13.06 2 25.81 2 39 C24.44 39 46.88 39 70 39 C70.33 39.66 70.66 40.32 71 41 C47.57 41 24.14 41 0 41 C0 27.47 0 13.94 0 0 Z " fill="#1770BA" transform="translate(91,180)"/>
<path d="M0 0 C5.33 3.75 9.57 8.37 10.75 14.94 C10.73 21.3 9.72 26.9 5.12 31.6 C0.05 35.92 -4.61 37.36 -11.25 36.94 C-17.54 35.94 -20.92 32.66 -24.9 27.88 C-28.05 23.36 -27.81 18.22 -27.25 12.94 C-25.25 6.57 -21.83 2.98 -16.06 -0.31 C-10.63 -1.76 -5.35 -1.75 0 0 Z M-22.56 7.56 C-26.05 12.47 -25.82 17.05 -25.25 22.94 C-23.76 27.77 -20.49 31.34 -16.3 34.05 C-11.59 36.08 -6.8 35.72 -1.97 34.24 C2.79 32.14 5.26 29.61 7.75 24.94 C9.28 20.35 9.69 15.56 8.03 10.93 C5.38 5.97 2.08 2.71 -3.25 0.94 C-11.74 0.12 -16.73 0.94 -22.56 7.56 Z " fill="#EEF6F7" transform="translate(260.25,283.0625)"/>
<path d="M0 0 C9.95 -0.02 19.91 -0.04 29.86 -0.05 C34.48 -0.06 39.1 -0.06 43.72 -0.08 C48.19 -0.09 52.65 -0.09 57.11 -0.09 C58.81 -0.1 60.51 -0.1 62.21 -0.11 C64.6 -0.11 66.98 -0.11 69.36 -0.11 C70.42 -0.12 70.42 -0.12 71.49 -0.12 C75.12 -0.12 78.47 0.14 82 1 C82 1.33 82 1.66 82 2 C65.4 3.02 48.84 3.12 32.21 3.07 C28.79 3.06 25.37 3.05 21.95 3.05 C15.3 3.04 8.65 3.02 2 3 C2 2.34 2 1.68 2 1 C1.34 0.67 0.68 0.34 0 0 Z " fill="#1BA456" transform="translate(332,567)"/>
<path d="M0 0 C12.5 -0.02 25 -0.04 37.5 -0.05 C43.3 -0.06 49.11 -0.06 54.91 -0.08 C60.5 -0.09 66.1 -0.09 71.7 -0.09 C73.84 -0.1 75.98 -0.1 78.12 -0.11 C81.1 -0.11 84.09 -0.11 87.07 -0.11 C87.97 -0.12 88.86 -0.12 89.78 -0.12 C95.89 -0.11 95.89 -0.11 97 1 C97.09 3.96 97.12 6.89 97.1 9.85 C97.1 10.73 97.09 11.62 97.09 12.53 C97.09 15.38 97.08 18.22 97.06 21.06 C97.06 22.99 97.05 24.91 97.05 26.83 C97.04 31.55 97.02 36.28 97 41 C96.67 41 96.34 41 96 41 C95.67 28.13 95.34 15.26 95 2 C90.38 2.33 85.76 2.66 81 3 C79.68 2.67 78.36 2.34 77 2 C74.48 1.88 71.99 1.82 69.48 1.79 C68.73 1.78 67.97 1.77 67.2 1.76 C64.72 1.73 62.24 1.71 59.77 1.68 C58.04 1.66 56.32 1.64 54.6 1.62 C50.08 1.57 45.56 1.52 41.03 1.47 C36.41 1.42 31.79 1.36 27.18 1.31 C18.12 1.2 9.06 1.1 0 1 C0 0.67 0 0.34 0 0 Z " fill="#1B8895" transform="translate(180,180)"/>
<path d="M0 0 C1.53 0.06 3.06 0.13 4.59 0.19 C8.29 0.33 11.99 0.5 15.69 0.69 C15.69 1.02 15.69 1.35 15.69 1.69 C14.86 1.69 14.03 1.7 13.18 1.7 C-13.32 1.93 -39.06 3.12 -59.22 22.51 C-62.06 25.47 -64.72 28.51 -67.31 31.69 C-67.97 32.35 -68.63 33.01 -69.31 33.69 C-68.23 25.76 -61.48 20.39 -55.6 15.41 C-38.9 2.81 -20.43 -1.02 0 0 Z " fill="#E4F3EA" transform="translate(403.3125,177.3125)"/>
<path d="M0 0 C16.23 -0.05 32.46 -0.08 48.69 -0.1 C56.22 -0.11 63.76 -0.13 71.29 -0.15 C77.86 -0.17 84.43 -0.18 90.99 -0.19 C94.47 -0.19 97.95 -0.2 101.43 -0.21 C105.31 -0.23 109.19 -0.23 113.07 -0.23 C114.8 -0.24 114.8 -0.24 116.57 -0.25 C117.63 -0.25 118.68 -0.24 119.77 -0.24 C120.69 -0.24 121.61 -0.24 122.56 -0.25 C125.14 0.01 126.78 0.69 129 2 C126.39 2.67 124.46 3.1 121.79 2.53 C118.34 1.87 114.98 1.89 111.47 1.92 C110.73 1.92 109.99 1.93 109.22 1.93 C107.61 1.93 106 1.94 104.38 1.95 C99.98 1.98 95.58 1.99 91.18 2 C90.26 2 89.34 2 88.4 2 C78.49 2.01 68.59 1.91 58.69 1.78 C57.82 1.77 56.95 1.76 56.05 1.75 C50.78 1.68 45.51 1.61 40.24 1.54 C35.67 1.47 31.1 1.41 26.53 1.36 C17.69 1.24 8.84 1.12 0 1 C0 0.67 0 0.34 0 0 Z " fill="#259A68" transform="translate(258,5)"/>
<path d="M0 0 C1.06 0.89 2.13 1.79 3.19 2.69 C4.08 3.44 4.08 3.44 4.98 4.2 C7.42 6.37 9.69 8.68 12 11 C13.04 12.04 14.07 13.07 15.11 14.11 C24.07 23.07 33.04 32.04 42 41 C38.57 40.41 36.77 39.21 34.21 36.88 C33.51 36.25 32.81 35.62 32.1 34.97 C28.91 31.97 25.76 28.94 22.66 25.86 C22 25.21 21.35 24.56 20.67 23.89 C19.31 22.54 17.94 21.18 16.58 19.82 C14.48 17.73 12.38 15.66 10.27 13.59 C8.94 12.26 7.61 10.94 6.28 9.61 C5.65 8.99 5.02 8.37 4.37 7.73 C0 3.34 0 3.34 0 0 Z " fill="#E3EDF4" transform="translate(105,553)"/>
<path d="M0 0 C9.73 8.9 15.37 21.82 16.11 34.95 C16.41 43.21 16.33 51.01 14 59 C13.67 59 13.34 59 13 59 C13.02 57.9 13.02 57.9 13.03 56.77 C13.07 53.39 13.1 50.01 13.12 46.62 C13.14 45.47 13.16 44.31 13.18 43.12 C13.26 28.93 10.59 15.69 1.14 4.62 C0 3 0 3 0 0 Z " fill="#F2F9F4" transform="translate(481,303)"/>
<path d="M0 0 C3.84 1.51 5.52 3.77 8 7 C9.65 8.68 11.32 10.34 13 12 C14.44 13.44 15.89 14.89 17.33 16.33 C18.15 17.15 18.97 17.97 19.82 18.82 C31.21 30.21 42.61 41.61 54 53 C51 53 51 53 49.08 51.46 C48.36 50.73 47.64 50.01 46.9 49.27 C45.66 48.05 45.66 48.05 44.41 46.8 C43.53 45.91 42.65 45.02 41.74 44.1 C40.83 43.2 39.93 42.29 38.99 41.36 C37.08 39.44 35.16 37.52 33.26 35.59 C30.81 33.12 28.35 30.66 25.88 28.2 C23.54 25.86 21.2 23.51 18.86 21.16 C17.53 19.83 17.53 19.83 16.17 18.48 C15.36 17.66 14.55 16.84 13.72 15.99 C13 15.27 12.28 14.54 11.54 13.8 C10 12 10 12 10 10 C9.4 9.73 8.8 9.46 8.19 9.19 C6 8 4.59 6.9 3 5 C3 4.34 3 3.68 3 3 C2.01 2.67 1.02 2.34 0 2 C0 1.34 0 0.68 0 0 Z " fill="#35AF47" transform="translate(455,63)"/>
<path d="M0 0 C5.58 -0.12 8.01 1.56 12.12 5.31 C13.34 6.48 13.34 6.48 14.57 7.68 C16.94 9.95 19.43 11.96 22 14 C23.69 15.65 25.35 17.31 27 19 C27.76 19.72 28.53 20.44 29.31 21.19 C31 23 31 23 31 25 C31.99 25.33 32.98 25.66 34 26 C35.47 27.5 35.47 27.5 37.06 29.44 C41.42 34.59 46.19 39.28 51 44 C48 44 48 44 46.29 42.63 C45.66 41.99 45.04 41.34 44.39 40.68 C43.68 39.96 42.96 39.23 42.22 38.49 C41.46 37.69 40.69 36.9 39.89 36.08 C39.1 35.27 38.3 34.46 37.48 33.63 C34.06 30.16 30.65 26.67 27.25 23.19 C24.76 20.64 22.27 18.11 19.77 15.58 C18.63 14.41 18.63 14.41 17.47 13.21 C12.98 8.66 8.55 5.16 3 2 C2.01 1.34 1.02 0.68 0 0 Z " fill="#EFF8F3" transform="translate(377,44)"/>
<path d="M0 0 C0.93 0.8 1.86 1.61 2.81 2.44 C3.46 2.98 4.1 3.53 4.77 4.09 C6.33 5.43 7.88 6.79 9.42 8.16 C21.15 18.29 34.81 24.16 50 27 C50 27.33 50 27.66 50 28 C33.25 28.75 17.82 18.74 5.48 8.36 C3.37 6.42 1.63 4.35 0 2 C0 1.34 0 0.68 0 0 Z " fill="#EFF8F3" transform="translate(334,387)"/>
<path d="M0 0 C0.33 0 0.66 0 1 0 C1.22 1.03 1.44 2.05 1.66 3.11 C6.15 23.13 17.57 36.01 32 50 C27.37 50 25.22 47.12 22 44 C9.86 31.41 -0.3 17.98 0 0 Z " fill="#E7EFF8" transform="translate(8,438)"/>
<path d="M0 0 C11.38 8.96 21.26 21.46 24 36 C24.14 39.01 24.12 41.99 24 45 C23.67 45 23.34 45 23 45 C22.79 44 22.58 42.99 22.37 41.96 C19.42 28.51 14.47 17.79 4.64 7.96 C2.14 5.43 0.39 3.62 0 0 Z " fill="#F2F9F3" transform="translate(551,156)"/>
<path d="M0 0 C4.16 1.64 6.98 4.68 10.09 7.79 C10.67 8.36 11.24 8.94 11.84 9.53 C13.07 10.75 14.29 11.97 15.51 13.19 C17.35 15.04 19.21 16.88 21.07 18.71 C36.72 34.27 36.72 34.27 39 45 C36 44 36 44 35.15 42.32 C34.89 41.6 34.64 40.87 34.38 40.12 C29.7 28.9 19.49 20.25 10.94 11.88 C9.36 10.32 7.77 8.76 6.2 7.21 C4.79 5.82 3.38 4.43 1.97 3.05 C0 1 0 1 0 0 Z " fill="#3EB348" transform="translate(500,159)"/>
<path d="M0 0 C0.95 0.87 1.9 1.73 2.88 2.62 C11.47 9.97 20.75 14.62 32 16 C32.33 16.33 32.66 16.66 33 17 C35.69 17.24 38.36 17.42 41.06 17.56 C41.82 17.61 42.58 17.65 43.36 17.69 C45.24 17.8 47.12 17.9 49 18 C49 18.33 49 18.66 49 19 C31.13 19.58 16.37 17.45 2.24 5.49 C0.76 3.72 0.4 2.26 0 0 Z " fill="#D9EFE0" transform="translate(370,360)"/>
<path d="M0 0 C4.73 -0.55 9.1 -1.01 13.41 1.28 C17.98 5.04 21.07 9.08 22 15 C22.14 21.17 20.93 26.81 16.64 31.48 C14.18 33.75 12.49 34.95 9.12 35.31 C8.42 35.21 7.72 35.11 7 35 C10 33 10 33 12.44 31.88 C16.63 28.81 18.52 24.82 19.39 19.72 C19.65 14.32 18.61 10.1 15 6 C10.43 2.19 5.82 1.41 0 1 C0 0.67 0 0.34 0 0 Z " fill="#EAF4F3" transform="translate(249,283)"/>
<path d="M0 0 C4.1 1.62 6.83 4.58 9.86 7.66 C10.41 8.22 10.96 8.77 11.52 9.34 C13.27 11.1 15.01 12.86 16.75 14.62 C17.94 15.82 19.12 17.02 20.31 18.21 C23.21 21.14 26.11 24.07 29 27 C28.34 27.66 27.68 28.32 27 29 C25.76 27.47 24.53 25.94 23.29 24.41 C22.03 22.87 22.03 22.87 20 22 C20 21.34 20 20.68 20 20 C19.42 19.74 18.84 19.49 18.24 19.23 C15.77 17.87 14.1 16.36 12.11 14.38 C11.05 13.32 11.05 13.32 9.96 12.23 C9.23 11.5 8.5 10.76 7.75 10 C7 9.26 6.26 8.53 5.49 7.77 C4.79 7.06 4.08 6.35 3.36 5.62 C2.71 4.98 2.07 4.33 1.41 3.66 C0 2 0 2 0 0 Z " fill="#4DB85E" transform="translate(472,131)"/>
<path d="M0 0 C12.55 0.56 21.55 9.65 30 18 C30.53 18.52 31.06 19.04 31.6 19.57 C34.76 22.69 37.89 25.83 41 29 C38 29 38 29 35.77 27.02 C34.94 26.15 34.11 25.28 33.25 24.38 C30.23 21.25 27.24 18.26 23.88 15.5 C22.93 14.68 21.98 13.85 21 13 C21 12.34 21 11.68 21 11 C19.89 10.57 19.89 10.57 18.75 10.12 C16.43 9.18 14.22 8.15 12 7 C12 6.34 12 5.68 12 5 C10.95 4.71 9.9 4.42 8.81 4.12 C5.77 3.23 2.91 2.24 0 1 C0 0.67 0 0.34 0 0 Z " fill="#2DA854" transform="translate(388,7)"/>
<path d="M0 0 C12.17 0.09 24.36 3.35 33.19 12.12 C34.16 13.18 35.12 14.23 36.06 15.31 C32.35 15.31 31.71 14.42 28.94 12.06 C17.55 2.97 5.26 1.91 -8.94 2.31 C-6.07 -0.56 -4.01 0.01 0 0 Z " fill="#F1F9F4" transform="translate(403.9375,215.6875)"/>
<path d="M0 0 C1.6 0.04 1.6 0.04 3.24 0.08 C4.05 0.12 4.85 0.15 5.69 0.19 C5.69 0.52 5.69 0.85 5.69 1.19 C4.64 1.19 4.64 1.19 3.56 1.2 C-2.72 1.45 -6.7 2.43 -11.66 6.32 C-15.88 11.08 -16.68 15.32 -16.5 21.56 C-16.47 22.81 -16.45 24.05 -16.42 25.34 C-16.38 26.28 -16.35 27.22 -16.31 28.19 C-19.15 25.35 -19.3 23.43 -19.56 19.44 C-19.47 13.8 -17.62 9.71 -13.94 5.44 C-9.26 1.43 -6.25 -0.21 0 0 Z " fill="#F2F8F7" transform="translate(297.3125,281.8125)"/>
<path d="M0 0 C3.15 1.39 5.26 3.02 7.67 5.48 C8.34 6.15 9 6.82 9.68 7.51 C10.37 8.21 11.05 8.91 11.75 9.62 C12.45 10.33 13.14 11.04 13.86 11.77 C15.58 13.51 17.29 15.25 19 17 C18.34 17.66 17.68 18.32 17 19 C14.16 16.22 11.33 13.42 8.5 10.62 C7.69 9.83 6.88 9.04 6.04 8.22 C4.89 7.08 4.89 7.08 3.72 5.91 C3.01 5.21 2.29 4.51 1.56 3.79 C0 2 0 2 0 0 Z " fill="#43B364" transform="translate(412,71)"/>
<path d="M0 0 C1.09 0.04 1.09 0.04 2.2 0.07 C4.5 0.15 6.8 0.23 9.11 0.32 C10.67 0.37 12.24 0.42 13.81 0.47 C17.64 0.6 21.46 0.74 25.29 0.88 C25.29 1.21 25.29 1.54 25.29 1.88 C4.5 2.37 4.5 2.37 -16.71 2.88 C-10.95 0 -6.34 -0.25 0 0 Z " fill="#CFEAD7" transform="translate(393.70703125,177.12109375)"/>
<path d="M0 0 C4.63 -0.05 9.25 -0.09 13.88 -0.11 C15.45 -0.12 17.03 -0.13 18.6 -0.15 C20.86 -0.18 23.13 -0.19 25.39 -0.2 C26.09 -0.21 26.79 -0.22 27.52 -0.23 C31.19 -0.23 33.88 -0.02 37 2 C33.21 2.97 30.79 2.76 27 2 C24.87 1.86 22.74 1.75 20.61 1.68 C19.4 1.64 18.2 1.6 16.96 1.56 C15.72 1.52 14.47 1.48 13.19 1.44 C11.29 1.37 11.29 1.37 9.35 1.31 C6.24 1.2 3.12 1.1 0 1 C0 0.67 0 0.34 0 0 Z " fill="#219D53" transform="translate(350,5)"/>
<path d="M0 0 C0.66 0.33 1.32 0.66 2 1 C0.77 2.32 0.77 2.32 -0.48 3.67 C-1.57 4.84 -2.66 6.01 -3.75 7.19 C-4.29 7.77 -4.83 8.34 -5.38 8.94 C-8.4 12.19 -11.28 15.49 -14 19 C-13.51 14.4 -11.82 12.26 -8.69 8.94 C-7.91 8.1 -7.13 7.26 -6.32 6.4 C-4.24 4.25 -2.13 2.11 0 0 Z " fill="#27A356" transform="translate(348,195)"/>
<path d="M0 0 C4.01 0.73 7.46 2.6 11.06 4.44 C11.69 4.75 12.31 5.06 12.96 5.38 C15.76 6.8 18.39 8.26 21 10 C15.8 10.42 12.77 9.2 8.25 6.69 C7.12 6.07 5.99 5.46 4.83 4.82 C2 3 2 3 0 0 Z " fill="#F1F7F9" transform="translate(145,594)"/>
<path d="M0 0 C0.33 0.99 0.66 1.98 1 3 C-9.39 1.02 -9.39 1.02 -20 -1 C-20 -1.33 -20 -1.66 -20 -2 C-13.19 -3.74 -6.55 -2.39 0 0 Z " fill="#DEF1E3" transform="translate(441,181)"/>
<path d="M0 0 C0.95 0.87 1.9 1.73 2.88 2.62 C6.64 5.89 10.71 8.29 15.06 10.7 C15.7 11.13 16.34 11.56 17 12 C17 12.66 17 13.32 17 14 C12.49 12.72 9.33 11.06 5.69 8.12 C4.83 7.45 3.96 6.77 3.07 6.07 C0.96 3.96 0.35 2.92 0 0 Z " fill="#E2F2E8" transform="translate(370,360)"/>
<path d="M0 0 C4.92 4.12 9.53 8.4 14 13 C13.67 13.99 13.34 14.98 13 16 C11.92 14.64 11.92 14.64 10.81 13.25 C8.47 10.42 5.89 8.28 3 6 C0 2.48 0 2.48 0 0 Z " fill="#E7F5EB" transform="translate(447,52)"/>
<path d="M0 0 C8.23 6.72 8.23 6.72 11 11 C10.67 11.99 10.34 12.98 10 14 C9.53 13.46 9.06 12.91 8.57 12.36 C7.95 11.64 7.33 10.92 6.69 10.19 C6.07 9.48 5.46 8.77 4.82 8.04 C3.08 6.02 3.08 6.02 1.27 4.43 C0 3 0 3 0 0 Z " fill="#E8F6E9" transform="translate(551,156)"/>
<path d="M0 0 C9.42 -0.92 9.42 -0.92 13.29 1.34 C14.98 2.82 16.53 4.31 18 6 C17.67 6.99 17.34 7.98 17 9 C16.26 8.22 15.51 7.43 14.75 6.62 C9.99 2.08 6.39 1.64 0 1 C0 0.67 0 0.34 0 0 Z " fill="#DBECEC" transform="translate(249,283)"/>
<path d="M0 0 C4.57 0.55 8.67 1.42 13 3 C12.67 3.66 12.34 4.32 12 5 C10.56 4.69 9.12 4.38 7.69 4.06 C6.89 3.89 6.09 3.71 5.26 3.54 C3 3 3 3 0 2 C0 1.34 0 0.68 0 0 Z " fill="#43B169" transform="translate(369,303)"/>
<path d="M0 0 C3.35 0.58 4.94 1.59 7.25 4.06 C8.03 4.88 8.03 4.88 8.83 5.72 C9.41 6.35 9.41 6.35 10 7 C9.67 7.99 9.34 8.98 9 10 C7.5 8.52 6 7.04 4.5 5.56 C3.66 4.74 2.83 3.92 1.97 3.07 C0 1 0 1 0 0 Z " fill="#D6EED9" transform="translate(520,127)"/>
<path d="M0 0 C0 0.66 0 1.32 0 2 C-0.78 2.08 -1.57 2.17 -2.38 2.25 C-5.12 2.7 -5.12 2.7 -6.06 4.88 C-6.53 5.93 -6.53 5.93 -7 7 C-9.12 8.75 -9.12 8.75 -11 10 C-10.74 6.51 -9.74 5.76 -7.06 3.31 C-2.68 0 -2.68 0 0 0 Z " fill="#218B94" transform="translate(248,284)"/>
<path d="M0 0 C1.13 0.93 2.25 1.87 3.38 2.81 C4 3.33 4.63 3.86 5.27 4.39 C7 6 7 6 9 9 C4.75 8.53 2.7 6.15 0 3 C0 2.01 0 1.02 0 0 Z " fill="#D2E1EF" transform="translate(105,553)"/>
<path d="M0 0 C3.82 1.5 5.56 3.77 8 7 C8.98 8.02 9.97 9.03 11 10 C7.21 9.46 5.45 7.88 3 5 C3 4.34 3 3.68 3 3 C2.01 2.67 1.02 2.34 0 2 C0 1.34 0 0.68 0 0 Z " fill="#47B55D" transform="translate(455,63)"/>
<path d="M0 0 C8.63 5.97 8.63 5.97 11 11 C7.84 9.6 5.68 7.95 3.25 5.5 C2.64 4.89 2.02 4.28 1.39 3.66 C0 2 0 2 0 0 Z " fill="#3AB055" transform="translate(442,50)"/>
<path d="M0 0 C-2.69 2.25 -4.65 3.88 -8 5 C-8.33 3.68 -8.66 2.36 -9 1 C-5.93 0.09 -3.2 -0.09 0 0 Z " fill="#23A35A" transform="translate(327,348)"/>
<path d="M0 0 C-5.44 0.99 -5.44 0.99 -11 2 C-11 1.34 -11 0.68 -11 0 C-4.5 -2.25 -4.5 -2.25 0 0 Z " fill="#DEF1E6" transform="translate(354,341)"/>
<path d="M0 0 C0.66 0 1.32 0 2 0 C3.51 1.97 3.51 1.97 5.12 4.5 C5.66 5.34 6.2 6.17 6.76 7.03 C7.17 7.68 7.58 8.33 8 9 C7.01 9 6.02 9 5 9 C3.61 7.54 3.61 7.54 2.31 5.62 C1.66 4.69 1.66 4.69 0.99 3.73 C0 2 0 2 0 0 Z " fill="#E5F3EC" transform="translate(327,378)"/>
<path d="M0 0 C4.95 0.99 4.95 0.99 10 2 C9.67 2.66 9.34 3.32 9 4 C4.55 3.01 4.55 3.01 0 2 C0 1.34 0 0.68 0 0 Z " fill="#45B361" transform="translate(404,314)"/>
<path d="M0 0 C3.96 0.57 6.67 1.81 10 4 C8 5 8 5 6.05 4.44 C5.34 4.15 4.62 3.86 3.88 3.56 C3.15 3.28 2.43 2.99 1.68 2.69 C0.85 2.35 0.85 2.35 0 2 C0 1.34 0 0.68 0 0 Z " fill="#DFF1E5" transform="translate(385,263)"/>
<path d="M0 0 C3.82 1.56 6.19 4.04 9 7 C4.68 7 3.07 4.87 0 2 C0 1.34 0 0.68 0 0 Z " fill="#44B35B" transform="translate(431,222)"/>
<path d="M0 0 C2.65 2.58 4.94 4.92 7 8 C3.77 7.44 1.98 6.67 0 4 C0 2.68 0 1.36 0 0 Z " fill="#DEEFEB" transform="translate(281,308)"/>
<path d="M0 0 C3.25 -0.25 3.25 -0.25 7 0 C8.32 1.32 9.64 2.64 11 4 C7.37 3.01 3.74 2.02 0 1 C0 0.67 0 0.34 0 0 Z " fill="#E0F2E5" transform="translate(406,271)"/>
<path d="M0 0 C4.97 0.5 8.64 1.55 13 4 C9.29 5.24 8.32 4.57 4.81 3.06 C3.91 2.68 3.01 2.3 2.08 1.91 C1.39 1.61 0.71 1.31 0 1 C0 0.67 0 0.34 0 0 Z " fill="#25A452" transform="translate(388,7)"/>
<path d="M0 0 C3.22 0.03 5.44 0.36 8.19 2.19 C3.27 3.45 -0.06 2.77 -4.81 1.19 C-3.81 0.19 -3.81 0.19 0 0 Z " fill="#27A459" transform="translate(378.8125,4.8125)"/>
<path d="M0 0 C2.31 0.66 4.62 1.32 7 2 C7 2.66 7 3.32 7 4 C2.55 3.01 2.55 3.01 -2 2 C-1.34 1.34 -0.68 0.68 0 0 Z " fill="#DEF1E2" transform="translate(445,282)"/>
<path d="M0 0 C0.66 0 1.32 0 2 0 C3.2 2.41 3.1 3.95 3.06 6.62 C3.05 7.44 3.04 8.26 3.04 9.1 C3.02 9.73 3.01 10.35 3 11 C2.67 11 2.34 11 2 11 C1.34 7.37 0.68 3.74 0 0 Z " fill="#E8F5EA" transform="translate(485,223)"/>
<path d="M0 0 C4.27 1.58 6.27 4.51 9 8 C5.18 6.44 2.77 4 0 1 C0 0.67 0 0.34 0 0 Z " fill="#33AD54" transform="translate(430,89)"/>
</svg>
