<svg xmlns="http://www.w3.org/2000/svg" xmlns:xlink="http://www.w3.org/1999/xlink" fill="none" version="1.1" width="78" height="78" viewBox="0 0 78 78"><g><g><ellipse cx="39" cy="39" rx="39" ry="39" fill="#262931" fill-opacity="1"/><ellipse cx="39" cy="39" rx="37" ry="37" fill-opacity="0" stroke-opacity="1" stroke="#3178C6" fill="none" stroke-width="4"/></g><g><path d="M59.5566,44.5898Q59.5566,43.0957,58.502,42.2959Q57.4473,41.4961,54.7051,40.6084Q51.96289,39.7207,50.36328,38.8594Q46.00391,36.5039,46.00391,32.5137Q46.00391,30.439500000000002,47.17285,28.813499999999998Q48.3418,27.1875,50.53027,26.27344Q52.71875,25.35938,55.4434,25.35938Q58.1855,25.35938,60.3301,26.352539999999998Q62.474599999999995,27.3457,63.661100000000005,29.1562Q64.8477,30.9668,64.8477,33.2695L59.5742,33.2695Q59.5742,31.511699999999998,58.4668,30.536099999999998Q57.3594,29.560499999999998,55.3555,29.560499999999998Q53.42188,29.560499999999998,52.34961,30.3779Q51.27734,31.1953,51.27734,32.5312Q51.27734,33.7793,52.53418,34.623000000000005Q53.79102,35.4668,56.2344,36.2051Q60.7344,37.5586,62.791,39.5625Q64.8477,41.5664,64.8477,44.5547Q64.8477,47.876999999999995,62.334,49.7666Q59.8203,51.6562,55.5664,51.6562Q52.61328,51.6562,50.1875,50.5752Q47.76172,49.4941,46.4873,47.613299999999995Q45.21289,45.7324,45.21289,43.2539L50.50391,43.2539Q50.50391,47.4902,55.5664,47.4902Q57.4473,47.4902,58.502,46.7256Q59.5566,45.960899999999995,59.5566,44.5898Z" fill="#85EA2D" fill-opacity="1"/></g><g><path d="M32.50391,38.539100000000005Q32.50391,37.7305,33.04883,37.226600000000005Q33.59375,36.7227,34.41406,36.7227Q35.24609,36.7227,35.79102,37.226600000000005Q36.33594,37.7305,36.33594,38.539100000000005Q36.33594,39.335899999999995,35.79688,39.834Q35.25781,40.332,34.41406,40.332Q33.58203,40.332,33.04297,39.834Q32.50391,39.335899999999995,32.50391,38.539100000000005ZM39.4766,38.539100000000005Q39.4766,37.7305,40.0215,37.226600000000005Q40.5664,36.7227,41.3867,36.7227Q42.2188,36.7227,42.7637,37.226600000000005Q43.3086,37.7305,43.3086,38.539100000000005Q43.3086,39.335899999999995,42.7695,39.834Q42.2305,40.332,41.3867,40.332Q40.5547,40.332,40.0156,39.834Q39.4766,39.335899999999995,39.4766,38.539100000000005Z" fill="#3178C6" fill-opacity="1"/></g><g><path d="M34.550799999999995,29.9824L26.710900000000002,29.9824L26.710900000000002,51.3047L21.4375,51.3047L21.4375,29.9824L13.703125,29.9824L13.703125,25.71094L34.550799999999995,25.71094L34.550799999999995,29.9824Z" fill="#3178C6" fill-opacity="1"/></g></g></svg>